<svg width="923" height="755" viewBox="0 0 923 755" fill="none" xmlns="http://www.w3.org/2000/svg">
<rect y="0.11084" width="923" height="754" rx="38.7055" fill="url(#paint0_linear_957_6469)"/>
<path d="M441.846 469.26L415.102 392.794H314.906L288.538 469.26H250.117L345.793 203.324H384.968L480.644 469.26H441.846ZM365.757 239.862H365.004C365.004 239.862 358.977 263.97 354.457 277.53L324.699 361.906H405.309L375.928 277.53C371.408 263.97 365.757 239.862 365.757 239.862ZM492.51 415.771C492.51 352.866 575.38 350.229 607.397 350.229H615.684V346.839C615.684 315.575 597.98 305.028 573.873 305.028C544.492 305.028 520.761 323.485 520.761 323.485L505.694 296.741C505.694 296.741 533.191 274.14 576.886 274.14C625.101 274.14 652.222 300.508 652.222 348.722V469.26H618.321V451.179C618.321 442.516 619.074 436.112 619.074 436.112H618.321C618.321 436.112 602.877 473.78 557.299 473.78C524.528 473.78 492.51 453.816 492.51 415.771ZM529.425 413.888C529.425 429.332 541.478 444.399 565.209 444.399C596.097 444.399 616.061 412.005 616.061 383.754V377.727H606.644C579.146 377.727 529.425 379.61 529.425 413.888Z" fill="black"/>
<path d="M361.631 651.752L360.669 649.002H357.066L356.118 651.752H354.736L358.177 642.188H359.586L363.027 651.752H361.631ZM358.895 643.502H358.868C358.868 643.502 358.651 644.369 358.488 644.856L357.418 647.891H360.317L359.261 644.856C359.098 644.369 358.895 643.502 358.895 643.502ZM367.479 649.828C367.479 647.566 370.459 647.471 371.611 647.471H371.909V647.349C371.909 646.225 371.272 645.845 370.405 645.845C369.348 645.845 368.495 646.509 368.495 646.509L367.953 645.547C367.953 645.547 368.942 644.734 370.513 644.734C372.247 644.734 373.223 645.683 373.223 647.417V651.752H372.003V651.101C372.003 650.79 372.031 650.56 372.031 650.56H372.003C372.003 650.56 371.448 651.914 369.809 651.914C368.63 651.914 367.479 651.196 367.479 649.828ZM368.806 649.76C368.806 650.316 369.24 650.858 370.093 650.858C371.204 650.858 371.922 649.693 371.922 648.677V648.46H371.583C370.595 648.46 368.806 648.528 368.806 649.76ZM379.333 651.752V642.188H382.679C384.291 642.188 385.456 643.082 385.456 644.626C385.456 645.561 384.995 646.306 384.264 646.685V646.712C385.266 647.01 385.835 647.959 385.835 649.029C385.835 650.831 384.44 651.752 382.76 651.752H379.333ZM380.674 646.211H382.679C383.546 646.211 384.088 645.601 384.088 644.761C384.088 643.922 383.573 643.353 382.652 643.353H380.674V646.211ZM380.674 650.587H382.828C383.857 650.587 384.467 649.936 384.467 648.961C384.467 647.986 383.817 647.322 382.814 647.322H380.674V650.587ZM391.518 651.752V642.188H392.832V645.317C392.832 645.656 392.805 645.899 392.805 645.899H392.832C392.832 645.899 393.415 644.734 395.027 644.734C396.869 644.734 398.034 646.197 398.034 648.324C398.034 650.505 396.72 651.914 394.919 651.914C393.388 651.914 392.765 650.736 392.765 650.736H392.738C392.738 650.736 392.765 650.952 392.765 651.25V651.752H391.518ZM392.792 648.351C392.792 649.571 393.428 650.79 394.729 650.79C395.813 650.79 396.707 649.896 396.707 648.338C396.707 646.848 395.907 645.886 394.77 645.886C393.74 645.886 392.792 646.604 392.792 648.351ZM403.132 646.915C403.132 644.138 405.219 642.025 407.996 642.025C410.299 642.025 411.477 643.285 411.477 643.285L410.813 644.287C410.813 644.287 409.703 643.244 408.05 643.244C405.91 643.244 404.514 644.87 404.514 646.902C404.514 648.947 405.937 650.682 408.063 650.682C409.865 650.682 411.017 649.435 411.017 649.435L411.735 650.397C411.735 650.397 410.421 651.914 408.023 651.914C405.151 651.914 403.132 649.72 403.132 646.915ZM416.671 648.324C416.671 646.292 418.188 644.734 420.342 644.734C422.063 644.734 422.916 645.737 422.916 645.737L422.293 646.658C422.293 646.658 421.562 645.872 420.397 645.872C419.015 645.872 418.012 646.902 418.012 648.311C418.012 649.706 419.015 650.776 420.437 650.776C421.711 650.776 422.55 649.855 422.55 649.855L423.079 650.817C423.079 650.817 422.131 651.914 420.342 651.914C418.188 651.914 416.671 650.383 416.671 648.324ZM428.709 651.752V642.188H431.879C434.805 642.188 436.729 643.935 436.729 646.956C436.729 649.991 434.805 651.752 431.879 651.752H428.709ZM430.05 650.587H431.784C433.938 650.587 435.347 649.313 435.347 646.956C435.347 644.612 433.924 643.353 431.784 643.353H430.05V650.587ZM441.889 648.324C441.889 646.143 443.176 644.734 444.991 644.734C446.576 644.734 447.105 645.818 447.105 645.818H447.132C447.132 645.818 447.105 645.615 447.105 645.358V642.188H448.419V651.752H447.173V651.101C447.173 650.831 447.186 650.641 447.186 650.641H447.159C447.159 650.641 446.604 651.914 444.91 651.914C443.054 651.914 441.889 650.451 441.889 648.324ZM443.23 648.324C443.23 649.814 444.03 650.776 445.168 650.776C446.184 650.776 447.145 650.058 447.145 648.311C447.145 647.092 446.509 645.872 445.208 645.872C444.124 645.872 443.23 646.766 443.23 648.324ZM454.614 651.752V642.188H460.168V643.353H455.955V646.346H459.382V647.512H455.955V650.587H460.398V651.752H454.614ZM465.505 648.324C465.505 646.143 466.982 644.734 468.932 644.734C470.87 644.734 471.899 646.17 471.899 647.945C471.899 648.121 471.858 648.514 471.858 648.514H466.86C466.927 650.018 467.998 650.776 469.217 650.776C470.395 650.776 471.249 649.977 471.249 649.977L471.791 650.939C471.791 650.939 470.775 651.914 469.136 651.914C466.982 651.914 465.505 650.356 465.505 648.324ZM466.9 647.525H470.558C470.517 646.346 469.786 645.778 468.905 645.778C467.903 645.778 467.09 646.401 466.9 647.525ZM477.635 651.752V642.188H482.905V643.353H478.976V646.496H482.322V647.661H478.976V651.752H477.635ZM488.612 651.752V646.048H487.758V644.992H488.612V644.667C488.612 642.404 490.319 642.12 491.186 642.12C491.484 642.12 491.687 642.16 491.687 642.16V643.285C491.687 643.285 491.552 643.258 491.348 643.258C490.847 643.258 489.912 643.42 489.912 644.694V644.992H491.538V646.048H489.912V651.752H488.612ZM496.302 646.956C496.302 644.193 498.388 642.025 501.179 642.025C503.468 642.025 504.66 643.177 504.66 643.177L503.983 644.179C503.983 644.179 502.913 643.244 501.287 643.244C499.038 643.244 497.684 644.883 497.684 646.929C497.684 649.151 499.201 650.682 501.206 650.682C502.859 650.682 503.915 649.489 503.915 649.489V648.108H502.357V646.943H505.134V651.752H503.956V651.156C503.956 650.952 503.969 650.749 503.969 650.749H503.942C503.942 650.749 502.899 651.914 501.003 651.914C498.429 651.914 496.302 649.882 496.302 646.956ZM511.44 652.998C511.44 652.998 512.294 653.459 513.323 653.459C514.515 653.459 515.491 652.93 515.491 651.535V651.034C515.491 650.817 515.504 650.6 515.504 650.6H515.477C515.071 651.278 514.434 651.67 513.445 651.67C511.535 651.67 510.384 650.14 510.384 648.162C510.384 646.197 511.481 644.734 513.377 644.734C515.03 644.734 515.531 645.75 515.531 645.75H515.558C515.558 645.75 515.545 645.656 515.545 645.534V644.897H516.805V651.467C516.805 653.73 515.084 654.597 513.35 654.597C512.524 654.597 511.671 654.366 511.007 654.028L511.44 652.998ZM513.703 650.532C514.651 650.532 515.518 649.964 515.518 648.175C515.518 646.387 514.651 645.872 513.581 645.872C512.389 645.872 511.711 646.739 511.711 648.135C511.711 649.557 512.47 650.532 513.703 650.532ZM523.002 651.752V642.188H524.344V646.387H529.302V642.188H530.643V651.752H529.302V647.552H524.344V651.752H523.002ZM536.842 651.752V642.188H538.156V645.696C538.156 646.021 538.129 646.265 538.129 646.265H538.156C538.454 645.601 539.321 644.734 540.689 644.734C542.301 644.734 543.046 645.615 543.046 647.363V651.752H541.732V647.661C541.732 646.699 541.529 645.94 540.431 645.94C539.402 645.94 538.548 646.645 538.264 647.633C538.183 647.904 538.156 648.216 538.156 648.541V651.752H536.842ZM549.146 651.752V642.188H550.487V651.752H549.146ZM556.674 643.529V642.188H558.002V643.529H556.674ZM556.688 651.752V644.897H558.002V651.752H556.688ZM563.308 649.002V648.528H564.636V648.934C564.636 650.234 565.395 650.682 566.153 650.682C566.898 650.682 567.643 650.248 567.643 648.988V643.353H565.232V642.188H568.985V649.002C568.985 651.074 567.535 651.914 566.14 651.914C564.744 651.914 563.308 651.061 563.308 649.002ZM356.157 659.529V658.188H357.484V659.529H356.157ZM356.17 660.897H357.471V667.982C357.471 670.271 355.71 670.542 354.856 670.542C354.572 670.542 354.396 670.515 354.396 670.515V669.391C354.396 669.391 354.517 669.404 354.694 669.404C355.195 669.404 356.17 669.242 356.17 667.901V660.897ZM363.672 667.752V658.188H365.013V662.211H366.436L368.847 658.188H370.324L367.546 662.726V662.753L370.5 667.752H368.982L366.436 663.363H365.013V667.752H363.672ZM375.712 667.752V658.188H377.026V663.417H377.988L379.857 660.897H381.347L379.072 663.918V663.945L381.605 667.752H380.074L378.015 664.528H377.026V667.752H375.712ZM386.984 667.752V658.188H388.325V666.587H392.606V667.752H386.984ZM397.673 665.882V658.188H398.987V665.652C398.987 666.478 399.312 666.627 399.718 666.627C399.84 666.627 399.949 666.614 399.949 666.614V667.779C399.949 667.779 399.745 667.806 399.515 667.806C398.77 667.806 397.673 667.603 397.673 665.882ZM405.183 667.752L405.955 658.188H407.364L409.558 663.363C409.775 663.891 410.032 664.649 410.032 664.649H410.06C410.06 664.649 410.317 663.891 410.534 663.363L412.728 658.188H414.137L414.909 667.752H413.582L413.108 661.723C413.067 661.141 413.094 660.314 413.094 660.314H413.067C413.067 660.314 412.783 661.195 412.552 661.723L410.642 666.031H409.45L407.553 661.723C407.337 661.209 407.039 660.287 407.039 660.287H407.012C407.012 660.287 407.025 661.141 406.984 661.723L406.524 667.752H405.183ZM420.815 667.752V660.897H422.088V661.805C422.088 662.076 422.061 662.306 422.061 662.306H422.088C422.413 661.507 423.375 660.734 424.445 660.734C425.597 660.734 426.274 661.263 426.505 662.292H426.532C426.911 661.466 427.859 660.734 428.97 660.734C430.514 660.734 431.232 661.615 431.232 663.363V667.752H429.918V663.647C429.918 662.685 429.729 661.927 428.699 661.927C427.737 661.927 427.019 662.739 426.775 663.674C426.708 663.959 426.681 664.27 426.681 664.622V667.752H425.367V663.647C425.367 662.753 425.231 661.927 424.174 661.927C423.172 661.927 422.468 662.753 422.21 663.728C422.142 663.999 422.129 664.311 422.129 664.622V667.752H420.815ZM437.339 667.752V658.188H438.667L442.92 664.406C443.273 664.92 443.72 665.787 443.72 665.787H443.747C443.747 665.787 443.652 664.934 443.652 664.406V658.188H444.993V667.752H443.679L439.412 661.547C439.06 661.019 438.612 660.152 438.612 660.152H438.585C438.585 660.152 438.68 661.005 438.68 661.547V667.752H437.339ZM451.191 667.752V660.897H452.465V661.805C452.465 662.076 452.438 662.306 452.438 662.306H452.465C452.736 661.71 453.549 660.734 455.039 660.734C456.651 660.734 457.396 661.615 457.396 663.363V667.752H456.082V663.661C456.082 662.699 455.879 661.94 454.781 661.94C453.738 661.94 452.898 662.631 452.614 663.62C452.533 663.891 452.506 664.202 452.506 664.541V667.752H451.191ZM462.845 662.902C462.845 660.152 464.999 658.025 467.763 658.025C470.526 658.025 472.667 660.152 472.667 662.902C472.667 665.72 470.526 667.914 467.763 667.914C464.999 667.914 462.845 665.72 462.845 662.902ZM464.227 662.902C464.227 665.056 465.812 666.682 467.763 666.682C469.714 666.682 471.285 665.056 471.285 662.902C471.285 660.816 469.714 659.244 467.763 659.244C465.812 659.244 464.227 660.816 464.227 662.902ZM477.72 664.311C477.72 662.238 479.373 660.734 481.418 660.734C483.464 660.734 485.116 662.238 485.116 664.311C485.116 666.397 483.464 667.914 481.418 667.914C479.373 667.914 477.72 666.397 477.72 664.311ZM479.061 664.311C479.061 665.747 480.131 666.776 481.418 666.776C482.719 666.776 483.775 665.747 483.775 664.311C483.775 662.888 482.719 661.872 481.418 661.872C480.131 661.872 479.061 662.888 479.061 664.311ZM490.816 667.752V658.188H494.311C496.059 658.188 497.319 659.366 497.319 661.181C497.319 662.997 496.059 664.216 494.311 664.216H492.157V667.752H490.816ZM492.157 663.051H494.095C495.246 663.051 495.95 662.333 495.95 661.181C495.95 660.03 495.246 659.353 494.108 659.353H492.157V663.051ZM502.644 670.461V660.897H503.85V661.479C503.85 661.75 503.823 661.981 503.823 661.981H503.85C503.85 661.981 504.433 660.734 506.153 660.734C507.995 660.734 509.161 662.197 509.161 664.324C509.161 666.505 507.846 667.914 506.058 667.914C504.555 667.914 503.959 666.79 503.959 666.79H503.931C503.931 666.79 503.959 667.034 503.959 667.386V670.461H502.644ZM503.918 664.351C503.918 665.571 504.595 666.79 505.855 666.79C506.939 666.79 507.833 665.896 507.833 664.338C507.833 662.848 507.034 661.886 505.896 661.886C504.866 661.886 503.918 662.604 503.918 664.351ZM514.272 662.915C514.272 660.152 516.413 658.025 519.176 658.025C521.953 658.025 524.094 660.152 524.094 662.915C524.094 664.121 523.66 665.232 522.969 666.072L524.107 667.156L523.321 667.996L522.211 666.885C521.384 667.549 520.341 667.914 519.176 667.914C516.413 667.914 514.272 665.706 514.272 662.915ZM515.654 662.915C515.654 665.056 517.198 666.682 519.176 666.682C519.894 666.682 520.693 666.424 521.249 665.977L520.124 664.88L520.91 664.04L522.007 665.151C522.441 664.555 522.712 663.755 522.712 662.915C522.712 660.802 521.167 659.244 519.176 659.244C517.198 659.244 515.654 660.802 515.654 662.915ZM529.346 664.324C529.346 662.143 530.633 660.734 532.448 660.734C534.033 660.734 534.616 661.886 534.616 661.886H534.643C534.643 661.886 534.629 661.683 534.629 661.412V660.897H535.876V670.461H534.562V667.332C534.562 666.98 534.589 666.736 534.589 666.736H534.562C534.562 666.736 533.993 667.914 532.367 667.914C530.511 667.914 529.346 666.451 529.346 664.324ZM530.687 664.324C530.687 665.814 531.486 666.776 532.624 666.776C533.64 666.776 534.602 666.058 534.602 664.311C534.602 663.092 533.966 661.872 532.665 661.872C531.581 661.872 530.687 662.766 530.687 664.324ZM542.071 667.752V658.188H544.997C545.999 658.188 546.419 658.269 546.785 658.404C547.76 658.77 548.397 659.732 548.397 660.992C548.397 662.211 547.72 663.241 546.677 663.579V663.606C546.677 663.606 546.785 663.728 546.961 664.04L548.993 667.752H547.476L545.457 663.945H543.412V667.752H542.071ZM543.412 662.78H545.336C546.379 662.78 547.029 662.116 547.029 661.046C547.029 660.342 546.758 659.84 546.27 659.569C546.013 659.434 545.701 659.353 544.956 659.353H543.412V662.78ZM554.349 667.752V660.897H555.622V662.089C555.622 662.374 555.595 662.604 555.595 662.604H555.622C555.934 661.601 556.733 660.816 557.79 660.816C557.966 660.816 558.128 660.843 558.128 660.843V662.143C558.128 662.143 557.952 662.103 557.749 662.103C556.909 662.103 556.137 662.699 555.825 663.715C555.704 664.108 555.663 664.528 555.663 664.947V667.752H554.349ZM562.839 666.654L563.597 665.638C563.597 665.638 564.614 666.668 566.036 666.668C566.93 666.668 567.689 666.167 567.689 665.259C567.689 663.186 563.056 663.633 563.056 660.694C563.056 659.204 564.343 658.025 566.144 658.025C567.919 658.025 568.854 658.987 568.854 658.987L568.244 660.098C568.244 660.098 567.364 659.271 566.144 659.271C565.128 659.271 564.41 659.908 564.41 660.667C564.41 662.645 569.043 662.116 569.043 665.218C569.043 666.695 567.905 667.914 566.009 667.914C563.977 667.914 562.839 666.654 562.839 666.654ZM376.052 682.912L376.689 681.977C376.689 681.977 377.461 682.776 378.653 682.776C379.222 682.776 379.791 682.478 379.791 681.923C379.791 680.663 376.269 680.92 376.269 678.685C376.269 677.439 377.38 676.734 378.748 676.734C380.252 676.734 380.956 677.493 380.956 677.493L380.428 678.482C380.428 678.482 379.818 677.872 378.735 677.872C378.166 677.872 377.61 678.116 377.61 678.712C377.61 679.945 381.132 679.674 381.132 681.923C381.132 683.061 380.157 683.914 378.653 683.914C376.974 683.914 376.052 682.912 376.052 682.912ZM387.809 683.752V675.353H384.53V674.188H392.428V675.353H389.15V683.752H387.809ZM397.678 681.246V678.048H396.783V676.992H397.718V675.014H398.992V676.992H400.644V678.048H398.992V681.097C398.992 682.465 399.953 682.641 400.455 682.641C400.644 682.641 400.766 682.614 400.766 682.614V683.779C400.766 683.779 400.577 683.806 400.306 683.806C399.425 683.806 397.678 683.535 397.678 681.246ZM406.254 680.365V674.188H407.595V680.365C407.595 681.828 408.544 682.682 410.007 682.682C411.483 682.682 412.445 681.828 412.445 680.338V674.188H413.786V680.365C413.786 682.492 412.256 683.914 410.02 683.914C407.785 683.914 406.254 682.492 406.254 680.365ZM419.75 681.286V676.897H421.065V680.988C421.065 681.936 421.254 682.695 422.351 682.695C423.747 682.695 424.573 681.462 424.573 680.108V676.897H425.887V683.752H424.614V682.844C424.614 682.56 424.641 682.343 424.641 682.343H424.614C424.329 683.02 423.435 683.914 422.094 683.914C420.55 683.914 419.75 683.101 419.75 681.286ZM434.215 683.752L430.679 674.188H432.128L434.499 680.947C434.675 681.462 434.865 682.262 434.865 682.262H434.892C434.892 682.262 435.082 681.462 435.258 680.947L437.655 674.188H439.078L435.556 683.752H434.215ZM445.683 683.752L443.122 676.897H444.518L446.184 681.53C446.319 681.909 446.401 682.465 446.414 682.465H446.441C446.455 682.465 446.55 681.909 446.685 681.53L448.351 676.897H449.733L447.2 683.752H445.683ZM459.496 674.188H460.688L462.558 681.205C462.693 681.733 462.761 682.221 462.761 682.221H462.788C462.788 682.221 462.829 681.72 462.964 681.205L464.725 674.188H466.107L463.601 683.752H462.043L460.39 677.547C460.228 676.938 460.106 676.193 460.106 676.193H460.079C460.079 676.193 459.957 676.938 459.794 677.547L458.141 683.752H456.583L454.145 674.188H455.527L457.22 681.205C457.342 681.72 457.396 682.221 457.396 682.221H457.423C457.423 682.221 457.491 681.733 457.627 681.205L459.496 674.188ZM472.853 683.752L470.645 676.897H472.04L473.462 681.706C473.571 682.058 473.625 682.438 473.638 682.438H473.666C473.666 682.438 473.733 682.058 473.842 681.706L475.332 676.911H476.537L478.014 681.706C478.122 682.058 478.204 682.438 478.204 682.438H478.231C478.231 682.438 478.285 682.058 478.393 681.706L479.829 676.897H481.211L479.003 683.752H477.553L476.131 679.349C476.023 678.997 475.941 678.604 475.941 678.604H475.914C475.914 678.604 475.833 678.997 475.725 679.349L474.316 683.752H472.853ZM485.471 683.752L488.492 678.821L485.66 674.188H487.205L488.708 676.775C489.006 677.29 489.318 677.913 489.318 677.913H489.345C489.345 677.913 489.616 677.303 489.928 676.775L491.431 674.188H492.976L490.144 678.821L493.165 683.752H491.648L489.914 680.812C489.602 680.27 489.304 679.715 489.304 679.715H489.277C489.277 679.715 489.02 680.284 488.708 680.812L486.974 683.752H485.471ZM500.792 681.083H500.765C500.765 681.083 500.657 681.3 500.562 681.462L499.126 683.752H497.636L499.966 680.23L497.758 676.897H499.262L500.535 678.983C500.643 679.159 500.765 679.39 500.765 679.39H500.792C500.792 679.39 500.914 679.159 501.023 678.983L502.296 676.897H503.8L501.592 680.23L503.922 683.752H502.432L500.996 681.462C500.901 681.3 500.792 681.083 500.792 681.083ZM511.341 683.752V679.701L508.13 674.188H509.647L511.422 677.33C511.72 677.859 512.005 678.536 512.005 678.536H512.032C512.032 678.536 512.316 677.872 512.614 677.33L514.362 674.188H515.879L512.682 679.701V683.752H511.341ZM519.924 686.177L520.385 685.174C520.385 685.174 520.764 685.459 521.184 685.459C521.712 685.459 522.159 685.079 522.417 684.456L522.755 683.67L519.883 676.897H521.36L523.081 681.381C523.216 681.733 523.338 682.207 523.338 682.207H523.365C523.365 682.207 523.473 681.747 523.595 681.395L525.262 676.897H526.684L523.473 684.984C523.053 686.041 522.214 686.597 521.252 686.597C520.48 686.597 519.924 686.177 519.924 686.177ZM530.685 683.752V682.858L535.291 676.22C535.657 675.678 535.982 675.339 535.982 675.339V675.312C535.982 675.312 535.725 675.353 535.264 675.353H530.929V674.188H537.649V675.068L533.043 681.72C532.677 682.248 532.352 682.587 532.352 682.587V682.614C532.352 682.614 532.609 682.587 533.07 682.587H537.703V683.752H530.685ZM542.758 683.752V682.993L546.212 678.658C546.51 678.292 546.781 678.021 546.781 678.021V677.994C546.781 677.994 546.564 678.021 546.117 678.021H542.907V676.897H548.556V677.656L545.101 682.004C544.817 682.356 544.519 682.627 544.519 682.627V682.654C544.519 682.654 544.749 682.627 545.196 682.627H548.678V683.752H542.758Z" fill="black"/>
<path d="M395.903 607.532L397.227 591.136H399.642L403.404 600.007C403.776 600.913 404.217 602.213 404.217 602.213H404.263C404.263 602.213 404.705 600.913 405.076 600.007L408.838 591.136H411.254L412.577 607.532H410.302L409.489 597.197C409.419 596.199 409.466 594.782 409.466 594.782H409.419C409.419 594.782 408.931 596.291 408.537 597.197L405.262 604.582H403.218L399.967 597.197C399.596 596.315 399.085 594.736 399.085 594.736H399.038C399.038 594.736 399.061 596.199 398.992 597.197L398.202 607.532H395.903ZM416.881 603.305V595.781H419.133V602.794C419.133 604.42 419.458 605.72 421.339 605.72C423.731 605.72 425.148 603.607 425.148 601.284V595.781H427.401V607.532H425.218V605.976C425.218 605.488 425.264 605.116 425.264 605.116H425.218C424.73 606.277 423.197 607.81 420.898 607.81C418.251 607.81 416.881 606.417 416.881 603.305ZM430.948 606.092L432.039 604.489C432.039 604.489 433.363 605.859 435.407 605.859C436.382 605.859 437.357 605.349 437.357 604.396C437.357 602.237 431.319 602.678 431.319 598.846C431.319 596.709 433.224 595.502 435.569 595.502C438.147 595.502 439.355 596.802 439.355 596.802L438.449 598.498C438.449 598.498 437.404 597.453 435.546 597.453C434.571 597.453 433.619 597.871 433.619 598.892C433.619 601.006 439.657 600.541 439.657 604.396C439.657 606.347 437.985 607.81 435.407 607.81C432.527 607.81 430.948 606.092 430.948 606.092ZM442.474 601.656C442.474 597.917 445.005 595.502 448.35 595.502C451.671 595.502 453.436 597.964 453.436 601.006C453.436 601.308 453.366 601.981 453.366 601.981H444.796C444.913 604.559 446.747 605.859 448.837 605.859C450.858 605.859 452.321 604.489 452.321 604.489L453.25 606.138C453.25 606.138 451.508 607.81 448.698 607.81C445.005 607.81 442.474 605.14 442.474 601.656ZM444.866 600.286H451.136C451.067 598.265 449.813 597.29 448.303 597.29C446.585 597.29 445.191 598.358 444.866 600.286ZM456.287 601.633C456.287 598.08 459.12 595.502 462.627 595.502C466.133 595.502 468.967 598.08 468.967 601.633C468.967 605.209 466.133 607.81 462.627 607.81C459.12 607.81 456.287 605.209 456.287 601.633ZM458.586 601.633C458.586 604.095 460.42 605.859 462.627 605.859C464.856 605.859 466.668 604.095 466.668 601.633C466.668 599.194 464.856 597.453 462.627 597.453C460.42 597.453 458.586 599.194 458.586 601.633ZM478.767 605.65L480.068 603.909C480.068 603.909 481.81 605.674 484.248 605.674C485.781 605.674 487.081 604.814 487.081 603.258C487.081 599.705 479.139 600.472 479.139 595.432C479.139 592.878 481.345 590.857 484.434 590.857C487.476 590.857 489.079 592.506 489.079 592.506L488.034 594.41C488.034 594.41 486.524 592.994 484.434 592.994C482.692 592.994 481.461 594.085 481.461 595.386C481.461 598.776 489.404 597.871 489.404 603.189C489.404 605.72 487.453 607.81 484.202 607.81C480.718 607.81 478.767 605.65 478.767 605.65ZM492.26 604.234C492.26 600.356 497.369 600.193 499.343 600.193H499.854V599.984C499.854 598.056 498.762 597.406 497.276 597.406C495.465 597.406 494.002 598.544 494.002 598.544L493.073 596.895C493.073 596.895 494.768 595.502 497.462 595.502C500.434 595.502 502.106 597.128 502.106 600.1V607.532H500.016V606.417C500.016 605.883 500.063 605.488 500.063 605.488H500.016C500.016 605.488 499.064 607.81 496.254 607.81C494.234 607.81 492.26 606.579 492.26 604.234ZM494.536 604.118C494.536 605.07 495.279 605.999 496.742 605.999C498.646 605.999 499.877 604.002 499.877 602.26V601.888H499.296C497.601 601.888 494.536 602.004 494.536 604.118ZM506.459 607.532V595.781H508.642V597.337C508.642 597.801 508.595 598.196 508.595 598.196H508.642C509.106 597.174 510.499 595.502 513.054 595.502C515.818 595.502 517.095 597.011 517.095 600.007V607.532H514.842V600.518C514.842 598.869 514.494 597.569 512.613 597.569C510.825 597.569 509.385 598.753 508.897 600.448C508.758 600.913 508.711 601.447 508.711 602.028V607.532H506.459ZM520.477 606.092L521.568 604.489C521.568 604.489 522.892 605.859 524.936 605.859C525.911 605.859 526.886 605.349 526.886 604.396C526.886 602.237 520.848 602.678 520.848 598.846C520.848 596.709 522.753 595.502 525.098 595.502C527.676 595.502 528.884 596.802 528.884 596.802L527.978 598.498C527.978 598.498 526.933 597.453 525.075 597.453C524.1 597.453 523.147 597.871 523.147 598.892C523.147 601.006 529.185 600.541 529.185 604.396C529.185 606.347 527.513 607.81 524.936 607.81C522.056 607.81 520.477 606.092 520.477 606.092Z" fill="black"/>
<path d="M389.137 710.778V709.612H391.25V703.435C391.25 703.137 391.264 702.839 391.264 702.839H391.237C391.237 702.839 391.128 703.056 390.776 703.394L389.882 704.275L389.069 703.435L391.359 701.213H392.551V709.612H394.637V710.778H389.137ZM403.56 710.778C403.52 710.52 403.493 710.276 403.493 710.046C403.493 706.632 408.18 706.144 408.18 703.896C408.18 702.947 407.462 702.311 406.459 702.311C405.199 702.311 404.522 703.53 404.522 703.53L403.533 702.866C403.533 702.866 404.4 701.051 406.554 701.051C408.315 701.051 409.575 702.148 409.575 703.801C409.575 706.944 405.01 707.431 404.983 709.612H409.724V710.778H403.56ZM418.783 709.64L419.514 708.624C419.514 708.624 420.449 709.667 421.831 709.667C422.901 709.667 423.782 708.949 423.782 707.919C423.782 706.741 422.739 706.158 421.56 706.158H420.896L420.585 705.44L422.671 702.988C422.982 702.622 423.267 702.365 423.267 702.365V702.338C423.267 702.338 422.982 702.378 422.454 702.378H419.216V701.213H424.933V702.067L422.332 705.061C423.592 705.196 425.136 706.009 425.136 707.865C425.136 709.504 423.849 710.94 421.885 710.94C419.934 710.94 418.783 709.64 418.783 709.64ZM434.088 708.217V707.377L438.505 701.213H440.035V707.079H441.336V708.217H440.035V710.778H438.721V708.217H434.088ZM435.565 707.079H438.721V703.598C438.721 703.151 438.776 702.649 438.776 702.649H438.748C438.748 702.649 438.532 703.096 438.274 703.435L435.565 707.052V707.079ZM450.275 709.612L451.02 708.637C451.02 708.637 451.765 709.667 453.12 709.667C454.244 709.667 455.22 708.895 455.22 707.729C455.22 706.578 454.272 705.765 453.039 705.765C452.104 705.765 451.427 706.239 451.427 706.239L450.655 705.955L451.129 701.213H455.951V702.378H452.294L452.063 704.397C452.05 704.681 451.996 704.898 451.996 704.898H452.023C452.023 704.898 452.551 704.6 453.256 704.6C455.274 704.6 456.588 705.995 456.588 707.716C456.588 709.558 455.139 710.94 453.201 710.94C451.237 710.94 450.275 709.612 450.275 709.612ZM469.375 710.94C467.33 710.94 465.799 709.152 465.799 706.429C465.799 703.977 467.14 701.051 470.107 701.051C471.231 701.051 471.963 701.444 471.963 701.444L471.529 702.595C471.529 702.595 470.919 702.284 470.161 702.284C468.4 702.284 467.492 703.909 467.289 705.494H467.316C467.722 704.952 468.589 704.587 469.429 704.587C471.245 704.587 472.45 705.968 472.45 707.743C472.45 709.626 471.163 710.94 469.375 710.94ZM469.362 709.707C470.459 709.707 471.123 708.854 471.123 707.743C471.123 706.578 470.378 705.725 469.158 705.725C468.075 705.725 467.208 706.375 467.208 707.066C467.208 708.312 468.142 709.707 469.362 709.707ZM482.015 710.778L485.741 703.245C486.012 702.704 486.296 702.365 486.296 702.365V702.338C486.296 702.338 486.079 702.378 485.592 702.378H481.324V701.213H487.718V702.135L483.397 710.778H482.015ZM496.534 708.014C496.534 706.551 497.807 705.643 498.065 705.467C497.441 705.02 496.994 704.438 496.994 703.557C496.994 702.284 497.956 701.051 499.975 701.051C501.749 701.051 502.982 702.04 502.982 703.611C502.982 704.885 501.966 705.968 501.844 706.104C502.576 706.551 503.145 707.147 503.145 708.136C503.145 709.626 501.858 710.94 499.866 710.94C497.956 710.94 496.534 709.748 496.534 708.014ZM501.763 708.095C501.763 707.066 500.34 706.659 499.054 706.036C498.742 706.253 497.902 706.903 497.902 707.933C497.902 709.03 498.85 709.734 499.866 709.734C500.869 709.734 501.763 709.084 501.763 708.095ZM498.322 703.584C498.322 704.641 499.595 705.047 500.828 705.576C500.977 705.426 501.668 704.695 501.668 703.692C501.668 702.812 500.964 702.257 499.961 702.257C498.904 702.257 498.322 702.853 498.322 703.584ZM514.739 710.94C513.601 710.94 512.883 710.547 512.883 710.547L513.316 709.382C513.316 709.382 513.926 709.707 514.685 709.707C516.446 709.707 517.353 708.082 517.557 706.497H517.529C517.137 707.039 516.256 707.391 515.416 707.391C513.601 707.391 512.395 706.023 512.395 704.248C512.395 702.365 513.682 701.051 515.47 701.051C517.502 701.051 519.047 702.825 519.047 705.562C519.047 708.014 517.706 710.94 514.739 710.94ZM515.687 706.266C516.771 706.266 517.638 705.603 517.638 704.925C517.638 703.679 516.703 702.284 515.484 702.284C514.373 702.284 513.723 703.137 513.723 704.248C513.723 705.413 514.454 706.266 515.687 706.266ZM531.809 710.94C529.262 710.94 528.436 708.745 528.436 705.982C528.436 703.232 529.262 701.051 531.809 701.051C534.369 701.051 535.196 703.232 535.196 705.982C535.196 708.745 534.369 710.94 531.809 710.94ZM531.809 709.707C533.38 709.707 533.827 708.068 533.827 705.982C533.827 703.909 533.38 702.284 531.809 702.284C530.251 702.284 529.804 703.909 529.804 705.982C529.804 708.068 530.251 709.707 531.809 709.707Z" fill="black"/>
<defs>
<linearGradient id="paint0_linear_957_6469" x1="461.5" y1="178.69" x2="447.37" y2="1487.43" gradientUnits="userSpaceOnUse">
<stop stop-color="#F2F2F2"/>
<stop offset="1" stop-color="#597095"/>
</linearGradient>
</defs>
</svg>
