<svg width="805" height="676" viewBox="0 0 805 676" fill="none" xmlns="http://www.w3.org/2000/svg">
<rect width="805" height="675.1" rx="47.1882" fill="#F3F3F3"/>
<path d="M542.246 174.315C618.9 249.272 619.029 417.111 542.284 495.593C465.539 574.076 292.024 573.876 215.371 498.919C138.717 423.962 138.588 256.124 215.333 177.641C292.077 99.159 465.592 99.3587 542.246 174.315Z" fill="url(#paint0_linear_957_6507)"/>
<g filter="url(#filter0_d_957_6507)">
<rect x="180.005" y="181.617" width="389.327" height="90.1123" rx="16.7004" fill="white"/>
<circle cx="228.019" cy="226.499" r="31.3132" fill="#F3F1F1"/>
<path d="M293.504 217.448V204.944H288.64V202.627H301.061V204.944H296.197V217.448H293.504ZM302.034 217.448V202.627H304.685V207.762C304.685 208.284 304.643 208.66 304.643 208.66H304.685C305.207 207.637 306.501 206.551 308.359 206.551C310.718 206.551 312.054 207.783 312.054 210.601V217.448H309.424V211.144C309.424 209.85 309.09 208.973 307.733 208.973C306.334 208.973 305.249 209.891 304.852 211.186C304.727 211.603 304.685 212.062 304.685 212.563V217.448H302.034ZM314.274 204.986V202.627H316.905V204.986H314.274ZM314.274 217.448V206.802H316.926V217.448H314.274ZM318.38 216.133L319.591 214.275C319.591 214.275 320.76 215.444 322.492 215.444C323.244 215.444 323.891 215.11 323.891 214.484C323.891 212.897 318.714 213.106 318.714 209.683C318.714 207.699 320.488 206.551 322.785 206.551C325.185 206.551 326.354 207.762 326.354 207.762L325.373 209.724C325.373 209.724 324.392 208.806 322.764 208.806C322.075 208.806 321.407 209.098 321.407 209.766C321.407 211.269 326.584 211.081 326.584 214.505C326.584 216.279 325.039 217.699 322.513 217.699C319.862 217.699 318.38 216.133 318.38 216.133ZM332.668 217.448V202.627H335.319V207.198C335.319 207.72 335.278 208.096 335.278 208.096H335.319C335.319 208.096 336.259 206.551 338.513 206.551C341.394 206.551 343.231 208.827 343.231 212.125C343.231 215.507 341.165 217.699 338.346 217.699C336.134 217.699 335.173 216.112 335.173 216.112H335.132C335.132 216.112 335.173 216.425 335.173 216.843V217.448H332.668ZM335.236 212.188C335.236 213.837 336.113 215.465 337.887 215.465C339.348 215.465 340.559 214.275 340.559 212.167C340.559 210.142 339.474 208.827 337.908 208.827C336.53 208.827 335.236 209.829 335.236 212.188ZM344.075 212.125C344.075 208.868 346.684 206.551 349.92 206.551C353.176 206.551 355.786 208.868 355.786 212.125C355.786 215.402 353.176 217.699 349.941 217.699C346.684 217.699 344.075 215.402 344.075 212.125ZM346.768 212.125C346.768 214.108 348.208 215.444 349.941 215.444C351.652 215.444 353.093 214.108 353.093 212.125C353.093 210.163 351.652 208.806 349.941 208.806C348.208 208.806 346.768 210.163 346.768 212.125ZM357.812 213.545V209.077H356.434V206.969H357.875V203.9H360.463V206.969H362.885V209.077H360.463V213.211C360.463 214.964 361.841 215.215 362.572 215.215C362.864 215.215 363.052 215.173 363.052 215.173V217.49C363.052 217.49 362.739 217.553 362.238 217.553C360.756 217.553 357.812 217.114 357.812 213.545ZM369.174 204.986V202.627H371.804V204.986H369.174ZM369.174 206.802H371.825V217.761C371.825 221.331 368.84 221.769 367.379 221.769C366.878 221.769 366.564 221.707 366.564 221.707V219.473C366.564 219.473 366.752 219.515 367.024 219.515C367.775 219.515 369.174 219.285 369.174 217.553V206.802ZM374.031 213.649V206.802H376.682V213.106C376.682 214.4 377.016 215.277 378.331 215.277C380.252 215.277 381.316 213.586 381.316 211.687V206.802H383.968V217.448H381.421V216.237C381.421 215.82 381.463 215.486 381.463 215.486H381.421C380.899 216.592 379.542 217.699 377.726 217.699C375.45 217.699 374.031 216.551 374.031 213.649ZM385.438 216.133L386.649 214.275C386.649 214.275 387.818 215.444 389.551 215.444C390.302 215.444 390.949 215.11 390.949 214.484C390.949 212.897 385.772 213.106 385.772 209.683C385.772 207.699 387.547 206.551 389.843 206.551C392.244 206.551 393.413 207.762 393.413 207.762L392.432 209.724C392.432 209.724 391.45 208.806 389.822 208.806C389.133 208.806 388.465 209.098 388.465 209.766C388.465 211.269 393.642 211.081 393.642 214.505C393.642 216.279 392.098 217.699 389.572 217.699C386.92 217.699 385.438 216.133 385.438 216.133ZM395.672 213.545V209.077H394.294V206.969H395.734V203.9H398.323V206.969H400.745V209.077H398.323V213.211C398.323 214.964 399.701 215.215 400.431 215.215C400.724 215.215 400.912 215.173 400.912 215.173V217.49C400.912 217.49 400.598 217.553 400.097 217.553C398.615 217.553 395.672 217.114 395.672 213.545ZM406.136 216.133L407.347 214.275C407.347 214.275 408.516 215.444 410.248 215.444C411 215.444 411.647 215.11 411.647 214.484C411.647 212.897 406.47 213.106 406.47 209.683C406.47 207.699 408.244 206.551 410.541 206.551C412.941 206.551 414.11 207.762 414.11 207.762L413.129 209.724C413.129 209.724 412.148 208.806 410.52 208.806C409.831 208.806 409.163 209.098 409.163 209.766C409.163 211.269 414.34 211.081 414.34 214.505C414.34 216.279 412.795 217.699 410.269 217.699C407.618 217.699 406.136 216.133 406.136 216.133ZM416.369 213.545V209.077H414.992V206.969H416.432V203.9H419.021V206.969H421.442V209.077H419.021V213.211C419.021 214.964 420.398 215.215 421.129 215.215C421.421 215.215 421.609 215.173 421.609 215.173V217.49C421.609 217.49 421.296 217.553 420.795 217.553C419.313 217.553 416.369 217.114 416.369 213.545ZM422.319 214.38C422.319 210.998 426.891 210.768 428.624 210.768H428.979V210.622C428.979 209.223 428.102 208.743 426.933 208.743C425.409 208.743 424.01 209.766 424.01 209.766L423.008 207.866C423.008 207.866 424.657 206.551 427.183 206.551C429.981 206.551 431.609 208.096 431.609 210.789V217.448H429.167V216.571C429.167 216.154 429.208 215.82 429.208 215.82H429.167C429.187 215.82 428.352 217.699 425.931 217.699C424.031 217.699 422.319 216.509 422.319 214.38ZM424.991 214.254C424.991 214.964 425.513 215.632 426.599 215.632C427.997 215.632 429 214.129 429 212.835V212.584H428.54C427.183 212.584 424.991 212.772 424.991 214.254ZM433.806 217.448V206.802H436.353V208.639C436.353 209.035 436.311 209.39 436.311 209.39H436.353C436.833 207.866 438.106 206.656 439.735 206.656C439.985 206.656 440.215 206.697 440.215 206.697V209.307C440.215 209.307 439.943 209.265 439.589 209.265C438.461 209.265 437.188 209.912 436.687 211.499C436.52 212.021 436.457 212.605 436.457 213.231V217.448H433.806ZM441.898 213.545V209.077H440.521V206.969H441.961V203.9H444.55V206.969H446.971V209.077H444.55V213.211C444.55 214.964 445.927 215.215 446.658 215.215C446.95 215.215 447.138 215.173 447.138 215.173V217.49C447.138 217.49 446.825 217.553 446.324 217.553C444.842 217.553 441.898 217.114 441.898 213.545ZM447.995 212.125C447.995 208.848 450.228 206.551 453.401 206.551C456.47 206.551 458.119 208.785 458.119 211.603C458.119 211.916 458.057 212.626 458.057 212.626H450.708C450.875 214.484 452.316 215.444 453.902 215.444C455.614 215.444 456.971 214.275 456.971 214.275L457.994 216.175C457.994 216.175 456.366 217.699 453.714 217.699C450.186 217.699 447.995 215.152 447.995 212.125ZM450.792 210.81H455.447C455.405 209.369 454.508 208.597 453.339 208.597C451.982 208.597 451.042 209.432 450.792 210.81ZM459.012 212.125C459.012 208.743 461.016 206.551 463.834 206.551C466.173 206.551 466.903 207.908 466.903 207.908H466.945C466.945 207.908 466.924 207.637 466.924 207.303V202.627H469.575V217.448H467.07V216.571C467.07 216.175 467.112 215.883 467.112 215.883H467.07C467.07 215.883 466.173 217.699 463.73 217.699C460.849 217.699 459.012 215.423 459.012 212.125ZM461.684 212.125C461.684 214.15 462.77 215.465 464.335 215.465C465.713 215.465 467.008 214.463 467.008 212.104C467.008 210.455 466.131 208.827 464.356 208.827C462.895 208.827 461.684 210.017 461.684 212.125Z" fill="black"/>
<path d="M292.356 238.411V229.045H288.659V228.139H297.047V229.045H293.364V238.411H292.356ZM297.783 238.411V228.139H298.777V232.113C298.777 232.449 298.748 232.712 298.748 232.712H298.777C299.055 232.011 300.034 230.886 301.7 230.886C303.512 230.886 304.155 231.923 304.155 233.735V238.411H303.161V233.998C303.161 232.844 302.986 231.821 301.568 231.821C300.311 231.821 299.23 232.683 298.894 233.911C298.806 234.203 298.777 234.539 298.777 234.89V238.411H297.783ZM305.854 229.381V228.139H306.892V229.381H305.854ZM305.883 238.411V231.061H306.877V238.411H305.883ZM308.118 237.52L308.659 236.804C308.659 236.804 309.477 237.695 310.851 237.695C311.64 237.695 312.327 237.301 312.327 236.526C312.327 234.919 308.367 235.313 308.367 232.917C308.367 231.602 309.551 230.886 310.88 230.886C312.429 230.886 313.145 231.689 313.145 231.689L312.692 232.449C312.692 232.449 312.064 231.777 310.851 231.777C310.106 231.777 309.39 232.099 309.39 232.917C309.39 234.539 313.35 234.101 313.35 236.526C313.35 237.725 312.312 238.587 310.836 238.587C309.054 238.587 308.118 237.52 308.118 237.52ZM317.996 238.411V228.139H318.99V231.704C318.99 232.04 318.961 232.303 318.961 232.303H318.99C318.99 232.303 319.604 230.886 321.489 230.886C323.462 230.886 324.689 232.464 324.689 234.744C324.689 237.067 323.301 238.587 321.372 238.587C319.618 238.587 318.961 237.155 318.961 237.155H318.932C318.932 237.155 318.961 237.403 318.961 237.754V238.411H317.996ZM318.961 234.758C318.961 236.234 319.721 237.71 321.299 237.71C322.599 237.71 323.666 236.614 323.666 234.744C323.666 232.946 322.716 231.792 321.343 231.792C320.115 231.792 318.961 232.669 318.961 234.758ZM325.499 234.7C325.499 232.522 327.237 230.886 329.386 230.886C331.534 230.886 333.273 232.522 333.273 234.7C333.273 236.921 331.534 238.587 329.386 238.587C327.237 238.587 325.499 236.921 325.499 234.7ZM326.521 234.7C326.521 236.409 327.807 237.695 329.386 237.695C330.964 237.695 332.25 236.409 332.25 234.7C332.25 233.034 330.964 231.792 329.386 231.792C327.807 231.792 326.521 233.034 326.521 234.7ZM334.845 235.737V231.982H333.88V231.149H334.859V229.03H335.839V231.149H337.68V231.982H335.839V235.635C335.839 237.359 336.934 237.578 337.49 237.578C337.694 237.578 337.826 237.549 337.826 237.549V238.441C337.826 238.441 337.665 238.47 337.402 238.47C336.555 238.47 334.845 238.192 334.845 235.737ZM342.247 229.381V228.139H343.27V229.381H342.247ZM342.262 231.061H343.256V238.689C343.256 241.129 341.517 241.422 340.698 241.422C340.435 241.422 340.26 241.378 340.26 241.378V240.516C340.26 240.516 340.392 240.53 340.581 240.53C341.151 240.53 342.262 240.326 342.262 238.645V231.061ZM344.994 235.737V231.061H345.988V235.474C345.988 236.629 346.163 237.652 347.58 237.652C349.261 237.652 350.298 236.176 350.298 234.583V231.061H351.292V238.411H350.328V237.315C350.328 236.994 350.357 236.731 350.357 236.731H350.328C350.035 237.447 349.071 238.587 347.449 238.587C345.725 238.587 344.994 237.652 344.994 235.737ZM352.526 237.52L353.066 236.804C353.066 236.804 353.885 237.695 355.258 237.695C356.047 237.695 356.734 237.301 356.734 236.526C356.734 234.919 352.774 235.313 352.774 232.917C352.774 231.602 353.958 230.886 355.287 230.886C356.836 230.886 357.552 231.689 357.552 231.689L357.099 232.449C357.099 232.449 356.471 231.777 355.258 231.777C354.513 231.777 353.797 232.099 353.797 232.917C353.797 234.539 357.757 234.101 357.757 236.526C357.757 237.725 356.719 238.587 355.244 238.587C353.461 238.587 352.526 237.52 352.526 237.52ZM359.319 235.737V231.982H358.354V231.149H359.334V229.03H360.313V231.149H362.154V231.982H360.313V235.635C360.313 237.359 361.409 237.578 361.964 237.578C362.168 237.578 362.3 237.549 362.3 237.549V238.441C362.3 238.441 362.139 238.47 361.876 238.47C361.029 238.47 359.319 238.192 359.319 235.737ZM366.137 237.52L366.678 236.804C366.678 236.804 367.496 237.695 368.87 237.695C369.659 237.695 370.345 237.301 370.345 236.526C370.345 234.919 366.385 235.313 366.385 232.917C366.385 231.602 367.569 230.886 368.899 230.886C370.448 230.886 371.164 231.689 371.164 231.689L370.711 232.449C370.711 232.449 370.082 231.777 368.87 231.777C368.124 231.777 367.408 232.099 367.408 232.917C367.408 234.539 371.368 234.101 371.368 236.526C371.368 237.725 370.331 238.587 368.855 238.587C367.072 238.587 366.137 237.52 366.137 237.52ZM372.93 235.737V231.982H371.966V231.149H372.945V229.03H373.924V231.149H375.765V231.982H373.924V235.635C373.924 237.359 375.02 237.578 375.575 237.578C375.78 237.578 375.911 237.549 375.911 237.549V238.441C375.911 238.441 375.751 238.47 375.488 238.47C374.64 238.47 372.93 238.192 372.93 235.737ZM376.386 236.409C376.386 233.925 379.615 233.867 380.887 233.867H381.296V233.677C381.296 232.259 380.521 231.777 379.469 231.777C378.256 231.777 377.394 232.479 377.394 232.479L376.927 231.719C376.927 231.719 377.891 230.886 379.542 230.886C381.311 230.886 382.29 231.865 382.29 233.706V238.411H381.34V237.608C381.34 237.242 381.369 236.994 381.369 236.994H381.34C381.34 236.994 380.726 238.587 378.885 238.587C377.657 238.587 376.386 237.871 376.386 236.409ZM377.409 236.351C377.409 237.038 377.95 237.739 379.046 237.739C380.448 237.739 381.296 236.278 381.296 235.007V234.685H380.872C379.718 234.685 377.409 234.729 377.409 236.351ZM384.015 238.411V231.061H384.994V232.362C384.994 232.683 384.965 232.946 384.965 232.946H384.994C385.345 231.836 386.163 230.988 387.317 230.988C387.522 230.988 387.712 231.032 387.712 231.032V232.011C387.712 232.011 387.537 231.982 387.347 231.982C386.309 231.982 385.535 232.8 385.213 233.881C385.067 234.349 385.009 234.846 385.009 235.313V238.411H384.015ZM388.939 235.737V231.982H387.975V231.149H388.954V229.03H389.933V231.149H391.774V231.982H389.933V235.635C389.933 237.359 391.029 237.578 391.584 237.578C391.788 237.578 391.92 237.549 391.92 237.549V238.441C391.92 238.441 391.759 238.47 391.496 238.47C390.649 238.47 388.939 238.192 388.939 235.737ZM392.482 234.744C392.482 232.332 394.119 230.886 396.106 230.886C398.138 230.886 399.175 232.449 399.175 234.276C399.175 234.451 399.146 234.787 399.146 234.787H393.505C393.549 236.672 394.835 237.695 396.355 237.695C397.699 237.695 398.591 236.804 398.591 236.804L399.044 237.564C399.044 237.564 397.977 238.587 396.326 238.587C394.134 238.587 392.482 237.009 392.482 234.744ZM393.549 233.969H398.167C398.108 232.435 397.173 231.719 396.077 231.719C394.85 231.719 393.783 232.493 393.549 233.969ZM400.027 234.729C400.027 232.406 401.4 230.886 403.329 230.886C405.112 230.886 405.726 232.274 405.726 232.274H405.755C405.755 232.274 405.726 232.026 405.726 231.719V228.139H406.719V238.411H405.755V237.637C405.755 237.315 405.784 237.111 405.784 237.111H405.755C405.755 237.111 405.156 238.587 403.227 238.587C401.254 238.587 400.027 237.009 400.027 234.729ZM401.049 234.729C401.049 236.541 401.999 237.695 403.373 237.695C404.6 237.695 405.755 236.819 405.755 234.729C405.755 233.238 404.995 231.777 403.417 231.777C402.116 231.777 401.049 232.873 401.049 234.729ZM411.315 236.409C411.315 233.925 414.544 233.867 415.815 233.867H416.225V233.677C416.225 232.259 415.45 231.777 414.398 231.777C413.185 231.777 412.323 232.479 412.323 232.479L411.855 231.719C411.855 231.719 412.82 230.886 414.471 230.886C416.239 230.886 417.218 231.865 417.218 233.706V238.411H416.268V237.608C416.268 237.242 416.298 236.994 416.298 236.994H416.268C416.268 236.994 415.655 238.587 413.813 238.587C412.586 238.587 411.315 237.871 411.315 236.409ZM412.338 236.351C412.338 237.038 412.878 237.739 413.974 237.739C415.377 237.739 416.225 236.278 416.225 235.007V234.685H415.801C414.646 234.685 412.338 234.729 412.338 236.351ZM422.642 238.411V231.982H421.721V231.149H422.642V230.798C422.642 228.372 424.351 228.066 425.184 228.066C425.462 228.066 425.637 228.095 425.637 228.095V228.986C425.637 228.986 425.491 228.957 425.287 228.957C424.717 228.957 423.635 229.161 423.635 230.798V231.149H425.52V231.982H423.635V238.411H422.642ZM425.856 234.744C425.856 232.332 427.492 230.886 429.48 230.886C431.511 230.886 432.548 232.449 432.548 234.276C432.548 234.451 432.519 234.787 432.519 234.787H426.879C426.922 236.672 428.208 237.695 429.728 237.695C431.072 237.695 431.964 236.804 431.964 236.804L432.417 237.564C432.417 237.564 431.35 238.587 429.699 238.587C427.507 238.587 425.856 237.009 425.856 234.744ZM426.922 233.969H431.54C431.482 232.435 430.546 231.719 429.45 231.719C428.223 231.719 427.156 232.493 426.922 233.969ZM435.416 238.411L432.932 231.061H433.984L435.767 236.541C435.884 236.892 435.986 237.33 435.986 237.33H436.015C436.015 237.33 436.118 236.892 436.235 236.541L438.047 231.09H439.026L440.838 236.541C440.955 236.892 441.057 237.33 441.057 237.33H441.086C441.086 237.33 441.188 236.906 441.305 236.541L443.088 231.061H444.14L441.656 238.411H440.575L438.777 233.18C438.646 232.815 438.543 232.391 438.543 232.391H438.514C438.514 232.391 438.412 232.815 438.295 233.18L436.498 238.411H435.416ZM448.384 238.411V231.061H449.363V232.157C449.363 232.479 449.333 232.742 449.333 232.742H449.363C449.713 231.748 450.882 230.886 452.022 230.886C453.381 230.886 454.083 231.514 454.302 232.727H454.331C454.726 231.733 455.792 230.886 457.034 230.886C458.817 230.886 459.475 231.923 459.475 233.735V238.411H458.481V233.984C458.481 232.785 458.233 231.792 456.888 231.792C455.763 231.792 454.842 232.785 454.565 233.867C454.463 234.188 454.433 234.539 454.433 234.934V238.411H453.44V233.984C453.44 232.873 453.279 231.792 451.891 231.792C450.692 231.792 449.786 232.829 449.48 233.954C449.406 234.261 449.377 234.597 449.377 234.934V238.411H448.384ZM461.178 229.381V228.139H462.215V229.381H461.178ZM461.207 238.411V231.061H462.201V238.411H461.207ZM464.041 238.411V231.061H465.02V232.157C465.02 232.479 464.991 232.742 464.991 232.742H465.02C465.283 232.069 466.219 230.886 467.957 230.886C469.769 230.886 470.412 231.923 470.412 233.735V238.411H469.419V233.998C469.419 232.844 469.243 231.821 467.826 231.821C466.569 231.821 465.488 232.683 465.152 233.896C465.064 234.203 465.035 234.539 465.035 234.89V238.411H464.041ZM471.542 237.52L472.083 236.804C472.083 236.804 472.901 237.695 474.275 237.695C475.064 237.695 475.75 237.301 475.75 236.526C475.75 234.919 471.79 235.313 471.79 232.917C471.79 231.602 472.974 230.886 474.304 230.886C475.853 230.886 476.569 231.689 476.569 231.689L476.116 232.449C476.116 232.449 475.487 231.777 474.275 231.777C473.529 231.777 472.813 232.099 472.813 232.917C472.813 234.539 476.773 234.101 476.773 236.526C476.773 237.725 475.736 238.587 474.26 238.587C472.477 238.587 471.542 237.52 471.542 237.52ZM480.821 236.409C480.821 233.925 484.05 233.867 485.321 233.867H485.731V233.677C485.731 232.259 484.956 231.777 483.904 231.777C482.691 231.777 481.829 232.479 481.829 232.479L481.361 231.719C481.361 231.719 482.326 230.886 483.977 230.886C485.745 230.886 486.724 231.865 486.724 233.706V238.411H485.774V237.608C485.774 237.242 485.804 236.994 485.804 236.994H485.774C485.774 236.994 485.161 238.587 483.32 238.587C482.092 238.587 480.821 237.871 480.821 236.409ZM481.844 236.351C481.844 237.038 482.384 237.739 483.48 237.739C484.883 237.739 485.731 236.278 485.731 235.007V234.685H485.307C484.152 234.685 481.844 234.729 481.844 236.351ZM489.005 240.077C489.005 240.077 489.911 240.589 490.992 240.589C492.424 240.589 493.564 239.916 493.564 238.28V237.608C493.564 237.33 493.593 237.082 493.593 237.082H493.564C493.126 237.9 492.38 238.368 491.241 238.368C489.268 238.368 487.967 236.804 487.967 234.597C487.967 232.391 489.18 230.886 491.153 230.886C493.096 230.886 493.579 232.113 493.579 232.113H493.608C493.608 232.113 493.593 232.026 493.593 231.865V231.061H494.558V238.236C494.558 240.574 492.833 241.48 491.036 241.48C490.188 241.48 489.341 241.261 488.625 240.896L489.005 240.077ZM491.401 237.476C492.556 237.476 493.579 236.76 493.579 234.597C493.579 232.449 492.556 231.792 491.255 231.792C489.823 231.792 488.99 232.829 488.99 234.583C488.99 236.336 489.94 237.476 491.401 237.476ZM495.852 234.7C495.852 232.522 497.591 230.886 499.739 230.886C501.887 230.886 503.626 232.522 503.626 234.7C503.626 236.921 501.887 238.587 499.739 238.587C497.591 238.587 495.852 236.921 495.852 234.7ZM496.875 234.7C496.875 236.409 498.161 237.695 499.739 237.695C501.317 237.695 502.603 236.409 502.603 234.7C502.603 233.034 501.317 231.792 499.739 231.792C498.161 231.792 496.875 233.034 496.875 234.7Z" fill="#4F5153"/>
<rect x="180.005" y="292.604" width="389.327" height="90.1123" rx="16.7004" fill="white"/>
<circle cx="228.019" cy="337.487" r="31.3132" fill="#D9D9D9"/>
<path d="M293.504 328.436V315.932H288.64V313.615H301.061V315.932H296.197V328.436H293.504ZM302.034 328.436V313.615H304.685V318.75C304.685 319.272 304.643 319.648 304.643 319.648H304.685C305.207 318.625 306.501 317.539 308.359 317.539C310.718 317.539 312.054 318.771 312.054 321.589V328.436H309.424V322.132C309.424 320.838 309.09 319.961 307.733 319.961C306.334 319.961 305.249 320.879 304.852 322.174C304.727 322.591 304.685 323.05 304.685 323.551V328.436H302.034ZM314.274 315.974V313.615H316.905V315.974H314.274ZM314.274 328.436V317.79H316.926V328.436H314.274ZM318.38 327.121L319.591 325.263C319.591 325.263 320.76 326.432 322.492 326.432C323.244 326.432 323.891 326.098 323.891 325.472C323.891 323.885 318.714 324.094 318.714 320.671C318.714 318.687 320.488 317.539 322.785 317.539C325.185 317.539 326.354 318.75 326.354 318.75L325.373 320.712C325.373 320.712 324.392 319.794 322.764 319.794C322.075 319.794 321.407 320.086 321.407 320.754C321.407 322.257 326.584 322.069 326.584 325.493C326.584 327.267 325.039 328.687 322.513 328.687C319.862 328.687 318.38 327.121 318.38 327.121ZM332.668 328.436V313.615H335.319V318.186C335.319 318.708 335.278 319.084 335.278 319.084H335.319C335.319 319.084 336.259 317.539 338.513 317.539C341.394 317.539 343.231 319.815 343.231 323.113C343.231 326.495 341.165 328.687 338.346 328.687C336.134 328.687 335.173 327.1 335.173 327.1H335.132C335.132 327.1 335.173 327.413 335.173 327.831V328.436H332.668ZM335.236 323.176C335.236 324.825 336.113 326.453 337.887 326.453C339.348 326.453 340.559 325.263 340.559 323.155C340.559 321.13 339.474 319.815 337.908 319.815C336.53 319.815 335.236 320.817 335.236 323.176ZM344.075 323.113C344.075 319.856 346.684 317.539 349.92 317.539C353.176 317.539 355.786 319.856 355.786 323.113C355.786 326.39 353.176 328.687 349.941 328.687C346.684 328.687 344.075 326.39 344.075 323.113ZM346.768 323.113C346.768 325.096 348.208 326.432 349.941 326.432C351.652 326.432 353.093 325.096 353.093 323.113C353.093 321.151 351.652 319.794 349.941 319.794C348.208 319.794 346.768 321.151 346.768 323.113ZM357.812 324.533V320.065H356.434V317.957H357.875V314.888H360.463V317.957H362.885V320.065H360.463V324.199C360.463 325.952 361.841 326.203 362.572 326.203C362.864 326.203 363.052 326.161 363.052 326.161V328.478C363.052 328.478 362.739 328.541 362.238 328.541C360.756 328.541 357.812 328.102 357.812 324.533ZM369.174 315.974V313.615H371.804V315.974H369.174ZM369.174 317.79H371.825V328.749C371.825 332.319 368.84 332.757 367.379 332.757C366.878 332.757 366.564 332.695 366.564 332.695V330.461C366.564 330.461 366.752 330.503 367.024 330.503C367.775 330.503 369.174 330.273 369.174 328.541V317.79ZM374.031 324.637V317.79H376.682V324.094C376.682 325.388 377.016 326.265 378.331 326.265C380.252 326.265 381.316 324.574 381.316 322.675V317.79H383.968V328.436H381.421V327.226C381.421 326.808 381.463 326.474 381.463 326.474H381.421C380.899 327.58 379.542 328.687 377.726 328.687C375.45 328.687 374.031 327.539 374.031 324.637ZM385.438 327.121L386.649 325.263C386.649 325.263 387.818 326.432 389.551 326.432C390.302 326.432 390.949 326.098 390.949 325.472C390.949 323.885 385.772 324.094 385.772 320.671C385.772 318.687 387.547 317.539 389.843 317.539C392.244 317.539 393.413 318.75 393.413 318.75L392.432 320.712C392.432 320.712 391.45 319.794 389.822 319.794C389.133 319.794 388.465 320.086 388.465 320.754C388.465 322.257 393.642 322.069 393.642 325.493C393.642 327.267 392.098 328.687 389.572 328.687C386.92 328.687 385.438 327.121 385.438 327.121ZM395.672 324.533V320.065H394.294V317.957H395.734V314.888H398.323V317.957H400.745V320.065H398.323V324.199C398.323 325.952 399.701 326.203 400.431 326.203C400.724 326.203 400.912 326.161 400.912 326.161V328.478C400.912 328.478 400.598 328.541 400.097 328.541C398.615 328.541 395.672 328.102 395.672 324.533ZM406.136 327.121L407.347 325.263C407.347 325.263 408.516 326.432 410.248 326.432C411 326.432 411.647 326.098 411.647 325.472C411.647 323.885 406.47 324.094 406.47 320.671C406.47 318.687 408.244 317.539 410.541 317.539C412.941 317.539 414.11 318.75 414.11 318.75L413.129 320.712C413.129 320.712 412.148 319.794 410.52 319.794C409.831 319.794 409.163 320.086 409.163 320.754C409.163 322.257 414.34 322.069 414.34 325.493C414.34 327.267 412.795 328.687 410.269 328.687C407.618 328.687 406.136 327.121 406.136 327.121ZM416.369 324.533V320.065H414.992V317.957H416.432V314.888H419.021V317.957H421.442V320.065H419.021V324.199C419.021 325.952 420.398 326.203 421.129 326.203C421.421 326.203 421.609 326.161 421.609 326.161V328.478C421.609 328.478 421.296 328.541 420.795 328.541C419.313 328.541 416.369 328.102 416.369 324.533ZM422.319 325.368C422.319 321.986 426.891 321.756 428.624 321.756H428.979V321.61C428.979 320.211 428.102 319.731 426.933 319.731C425.409 319.731 424.01 320.754 424.01 320.754L423.008 318.854C423.008 318.854 424.657 317.539 427.183 317.539C429.981 317.539 431.609 319.084 431.609 321.777V328.436H429.167V327.56C429.167 327.142 429.208 326.808 429.208 326.808H429.167C429.187 326.808 428.352 328.687 425.931 328.687C424.031 328.687 422.319 327.497 422.319 325.368ZM424.991 325.242C424.991 325.952 425.513 326.62 426.599 326.62C427.997 326.62 429 325.117 429 323.823V323.572H428.54C427.183 323.572 424.991 323.76 424.991 325.242ZM433.806 328.436V317.79H436.353V319.627C436.353 320.023 436.311 320.378 436.311 320.378H436.353C436.833 318.854 438.106 317.644 439.735 317.644C439.985 317.644 440.215 317.685 440.215 317.685V320.295C440.215 320.295 439.943 320.253 439.589 320.253C438.461 320.253 437.188 320.9 436.687 322.487C436.52 323.009 436.457 323.593 436.457 324.219V328.436H433.806ZM441.898 324.533V320.065H440.521V317.957H441.961V314.888H444.55V317.957H446.971V320.065H444.55V324.199C444.55 325.952 445.927 326.203 446.658 326.203C446.95 326.203 447.138 326.161 447.138 326.161V328.478C447.138 328.478 446.825 328.541 446.324 328.541C444.842 328.541 441.898 328.102 441.898 324.533ZM447.995 323.113C447.995 319.836 450.228 317.539 453.401 317.539C456.47 317.539 458.119 319.773 458.119 322.591C458.119 322.904 458.057 323.614 458.057 323.614H450.708C450.875 325.472 452.316 326.432 453.902 326.432C455.614 326.432 456.971 325.263 456.971 325.263L457.994 327.163C457.994 327.163 456.366 328.687 453.714 328.687C450.186 328.687 447.995 326.14 447.995 323.113ZM450.792 321.798H455.447C455.405 320.357 454.508 319.585 453.339 319.585C451.982 319.585 451.042 320.42 450.792 321.798ZM459.012 323.113C459.012 319.731 461.016 317.539 463.834 317.539C466.173 317.539 466.903 318.896 466.903 318.896H466.945C466.945 318.896 466.924 318.625 466.924 318.291V313.615H469.575V328.436H467.07V327.56C467.07 327.163 467.112 326.871 467.112 326.871H467.07C467.07 326.871 466.173 328.687 463.73 328.687C460.849 328.687 459.012 326.411 459.012 323.113ZM461.684 323.113C461.684 325.138 462.77 326.453 464.335 326.453C465.713 326.453 467.008 325.451 467.008 323.092C467.008 321.443 466.131 319.815 464.356 319.815C462.895 319.815 461.684 321.005 461.684 323.113Z" fill="black"/>
<path d="M292.899 354.574V343.869H288.674V342.834H298.26V343.869H294.051V354.574H292.899ZM299.182 354.574V342.834H300.318V347.376C300.318 347.76 300.284 348.061 300.284 348.061H300.318C300.635 347.259 301.754 345.974 303.658 345.974C305.728 345.974 306.463 347.159 306.463 349.23V354.574H305.328V349.531C305.328 348.211 305.127 347.042 303.507 347.042C302.071 347.042 300.835 348.028 300.451 349.431C300.351 349.765 300.318 350.149 300.318 350.549V354.574H299.182ZM308.486 344.253V342.834H309.672V344.253H308.486ZM308.519 354.574V346.174H309.655V354.574H308.519ZM311.154 353.555L311.772 352.737C311.772 352.737 312.707 353.756 314.277 353.756C315.179 353.756 315.964 353.305 315.964 352.42C315.964 350.583 311.438 351.034 311.438 348.295C311.438 346.792 312.791 345.974 314.31 345.974C316.081 345.974 316.899 346.892 316.899 346.892L316.381 347.76C316.381 347.76 315.663 346.992 314.277 346.992C313.425 346.992 312.607 347.36 312.607 348.295C312.607 350.149 317.133 349.648 317.133 352.42C317.133 353.789 315.947 354.775 314.26 354.775C312.223 354.775 311.154 353.555 311.154 353.555ZM322.604 354.574V342.834H323.739V346.909C323.739 347.293 323.706 347.593 323.706 347.593H323.739C323.739 347.593 324.441 345.974 326.595 345.974C328.849 345.974 330.252 347.777 330.252 350.382C330.252 353.038 328.666 354.775 326.461 354.775C324.457 354.775 323.706 353.138 323.706 353.138H323.672C323.672 353.138 323.706 353.422 323.706 353.823V354.574H322.604ZM323.706 350.399C323.706 352.086 324.574 353.773 326.378 353.773C327.864 353.773 329.083 352.52 329.083 350.382C329.083 348.328 327.998 347.009 326.428 347.009C325.025 347.009 323.706 348.011 323.706 350.399ZM331.258 350.332C331.258 347.844 333.245 345.974 335.7 345.974C338.155 345.974 340.142 347.844 340.142 350.332C340.142 352.871 338.155 354.775 335.7 354.775C333.245 354.775 331.258 352.871 331.258 350.332ZM332.427 350.332C332.427 352.286 333.896 353.756 335.7 353.756C337.504 353.756 338.973 352.286 338.973 350.332C338.973 348.428 337.504 347.009 335.7 347.009C333.896 347.009 332.427 348.428 332.427 350.332ZM342.02 351.518V347.226H340.917V346.274H342.036V343.853H343.155V346.274H345.259V347.226H343.155V351.401C343.155 353.372 344.408 353.622 345.042 353.622C345.276 353.622 345.426 353.589 345.426 353.589V354.608C345.426 354.608 345.243 354.641 344.942 354.641C343.974 354.641 342.02 354.324 342.02 351.518ZM350.64 344.253V342.834H351.809V344.253H350.64ZM350.657 346.174H351.793V354.892C351.793 357.68 349.805 358.014 348.87 358.014C348.569 358.014 348.369 357.964 348.369 357.964V356.979C348.369 356.979 348.519 356.996 348.736 356.996C349.388 356.996 350.657 356.762 350.657 354.841V346.174ZM353.859 351.518V346.174H354.995V351.217C354.995 352.537 355.195 353.706 356.815 353.706C358.736 353.706 359.922 352.019 359.922 350.199V346.174H361.057V354.574H359.955V353.322C359.955 352.954 359.988 352.654 359.988 352.654H359.955C359.621 353.472 358.519 354.775 356.665 354.775C354.694 354.775 353.859 353.706 353.859 351.518ZM362.547 353.555L363.165 352.737C363.165 352.737 364.101 353.756 365.67 353.756C366.572 353.756 367.357 353.305 367.357 352.42C367.357 350.583 362.831 351.034 362.831 348.295C362.831 346.792 364.184 345.974 365.704 345.974C367.474 345.974 368.292 346.892 368.292 346.892L367.775 347.76C367.775 347.76 367.057 346.992 365.67 346.992C364.819 346.992 364 347.36 364 348.295C364 350.149 368.526 349.648 368.526 352.42C368.526 353.789 367.34 354.775 365.654 354.775C363.616 354.775 362.547 353.555 362.547 353.555ZM370.392 351.518V347.226H369.289V346.274H370.408V343.853H371.527V346.274H373.631V347.226H371.527V351.401C371.527 353.372 372.78 353.622 373.414 353.622C373.648 353.622 373.798 353.589 373.798 353.589V354.608C373.798 354.608 373.615 354.641 373.314 354.641C372.345 354.641 370.392 354.324 370.392 351.518ZM378.344 353.555L378.962 352.737C378.962 352.737 379.897 353.756 381.467 353.756C382.369 353.756 383.154 353.305 383.154 352.42C383.154 350.583 378.628 351.034 378.628 348.295C378.628 346.792 379.981 345.974 381.5 345.974C383.271 345.974 384.089 346.892 384.089 346.892L383.571 347.76C383.571 347.76 382.853 346.992 381.467 346.992C380.615 346.992 379.797 347.36 379.797 348.295C379.797 350.149 384.323 349.648 384.323 352.42C384.323 353.789 383.137 354.775 381.45 354.775C379.413 354.775 378.344 353.555 378.344 353.555ZM386.188 351.518V347.226H385.086V346.274H386.205V343.853H387.324V346.274H389.428V347.226H387.324V351.401C387.324 353.372 388.576 353.622 389.211 353.622C389.445 353.622 389.595 353.589 389.595 353.589V354.608C389.595 354.608 389.411 354.641 389.111 354.641C388.142 354.641 386.188 354.324 386.188 351.518ZM390.218 352.286C390.218 349.447 393.909 349.38 395.362 349.38H395.829V349.163C395.829 347.543 394.944 346.992 393.742 346.992C392.356 346.992 391.37 347.794 391.37 347.794L390.836 346.925C390.836 346.925 391.938 345.974 393.825 345.974C395.846 345.974 396.965 347.092 396.965 349.197V354.574H395.879V353.656C395.879 353.238 395.913 352.954 395.913 352.954H395.879C395.879 352.954 395.178 354.775 393.074 354.775C391.671 354.775 390.218 353.956 390.218 352.286ZM391.387 352.219C391.387 353.004 392.005 353.806 393.258 353.806C394.861 353.806 395.829 352.136 395.829 350.683V350.316H395.345C394.026 350.316 391.387 350.366 391.387 352.219ZM399.017 354.574V346.174H400.136V347.66C400.136 348.028 400.102 348.328 400.102 348.328H400.136C400.537 347.059 401.472 346.09 402.791 346.09C403.025 346.09 403.242 346.141 403.242 346.141V347.259C403.242 347.259 403.042 347.226 402.825 347.226C401.639 347.226 400.754 348.161 400.386 349.397C400.219 349.932 400.153 350.499 400.153 351.034V354.574H399.017ZM404.725 351.518V347.226H403.623V346.274H404.742V343.853H405.86V346.274H407.965V347.226H405.86V351.401C405.86 353.372 407.113 353.622 407.748 353.622C407.981 353.622 408.132 353.589 408.132 353.589V354.608C408.132 354.608 407.948 354.641 407.647 354.641C406.679 354.641 404.725 354.324 404.725 351.518ZM408.855 350.382C408.855 347.627 410.725 345.974 412.997 345.974C415.318 345.974 416.504 347.76 416.504 349.848C416.504 350.048 416.47 350.433 416.47 350.433H410.024C410.074 352.587 411.544 353.756 413.28 353.756C414.817 353.756 415.836 352.737 415.836 352.737L416.353 353.606C416.353 353.606 415.134 354.775 413.247 354.775C410.742 354.775 408.855 352.971 408.855 350.382ZM410.074 349.497H415.351C415.284 347.744 414.216 346.925 412.963 346.925C411.56 346.925 410.341 347.811 410.074 349.497ZM417.557 350.366C417.557 347.71 419.127 345.974 421.331 345.974C423.369 345.974 424.07 347.56 424.07 347.56H424.104C424.104 347.56 424.07 347.276 424.07 346.925V342.834H425.206V354.574H424.104V353.689C424.104 353.322 424.137 353.088 424.137 353.088H424.104C424.104 353.088 423.419 354.775 421.214 354.775C418.96 354.775 417.557 352.971 417.557 350.366ZM418.726 350.366C418.726 352.437 419.812 353.756 421.381 353.756C422.784 353.756 424.104 352.754 424.104 350.366C424.104 348.662 423.235 346.992 421.431 346.992C419.945 346.992 418.726 348.245 418.726 350.366ZM430.618 352.286C430.618 349.447 434.309 349.38 435.762 349.38H436.23V349.163C436.23 347.543 435.344 346.992 434.142 346.992C432.756 346.992 431.771 347.794 431.771 347.794L431.236 346.925C431.236 346.925 432.338 345.974 434.226 345.974C436.246 345.974 437.365 347.092 437.365 349.197V354.574H436.28V353.656C436.28 353.238 436.313 352.954 436.313 352.954H436.28C436.28 352.954 435.578 354.775 433.474 354.775C432.071 354.775 430.618 353.956 430.618 352.286ZM431.787 352.219C431.787 353.004 432.405 353.806 433.658 353.806C435.261 353.806 436.23 352.136 436.23 350.683V350.316H435.745C434.426 350.316 431.787 350.366 431.787 352.219ZM443.724 354.574V347.226H442.672V346.274H443.724V345.873C443.724 343.101 445.678 342.75 446.63 342.75C446.947 342.75 447.148 342.784 447.148 342.784V343.802C447.148 343.802 446.981 343.769 446.747 343.769C446.096 343.769 444.86 344.003 444.86 345.873V346.274H447.014V347.226H444.86V354.574H443.724ZM447.477 350.382C447.477 347.627 449.348 345.974 451.619 345.974C453.94 345.974 455.126 347.76 455.126 349.848C455.126 350.048 455.093 350.433 455.093 350.433H448.646C448.697 352.587 450.166 353.756 451.903 353.756C453.439 353.756 454.458 352.737 454.458 352.737L454.976 353.606C454.976 353.606 453.757 354.775 451.87 354.775C449.365 354.775 447.477 352.971 447.477 350.382ZM448.697 349.497H453.974C453.907 347.744 452.838 346.925 451.586 346.925C450.183 346.925 448.964 347.811 448.697 349.497ZM458.484 354.574L455.645 346.174H456.848L458.885 352.437C459.019 352.837 459.136 353.338 459.136 353.338H459.169C459.169 353.338 459.286 352.837 459.419 352.437L461.49 346.207H462.609L464.68 352.437C464.814 352.837 464.931 353.338 464.931 353.338H464.964C464.964 353.338 465.081 352.854 465.214 352.437L467.252 346.174H468.454L465.615 354.574H464.379L462.325 348.595C462.175 348.178 462.058 347.694 462.058 347.694H462.025C462.025 347.694 461.908 348.178 461.774 348.595L459.72 354.574H458.484ZM473.465 354.574V346.174H474.584V347.426C474.584 347.794 474.55 348.094 474.55 348.094H474.584C474.984 346.959 476.32 345.974 477.623 345.974C479.176 345.974 479.978 346.692 480.228 348.078H480.262C480.713 346.942 481.932 345.974 483.351 345.974C485.389 345.974 486.14 347.159 486.14 349.23V354.574H485.005V349.514C485.005 348.145 484.721 347.009 483.184 347.009C481.898 347.009 480.846 348.145 480.529 349.38C480.412 349.748 480.379 350.149 480.379 350.6V354.574H479.243V349.514C479.243 348.245 479.059 347.009 477.473 347.009C476.103 347.009 475.068 348.195 474.717 349.481C474.634 349.831 474.6 350.215 474.6 350.6V354.574H473.465ZM488.167 344.253V342.834H489.353V344.253H488.167ZM488.2 354.574V346.174H489.336V354.574H488.2ZM491.52 354.574V346.174H492.639V347.426C492.639 347.794 492.605 348.094 492.605 348.094H492.639C492.939 347.326 494.008 345.974 495.995 345.974C498.066 345.974 498.801 347.159 498.801 349.23V354.574H497.665V349.531C497.665 348.211 497.465 347.042 495.845 347.042C494.409 347.042 493.173 348.028 492.789 349.414C492.689 349.765 492.655 350.149 492.655 350.549V354.574H491.52ZM500.172 353.555L500.79 352.737C500.79 352.737 501.725 353.756 503.295 353.756C504.197 353.756 504.982 353.305 504.982 352.42C504.982 350.583 500.456 351.034 500.456 348.295C500.456 346.792 501.809 345.974 503.329 345.974C505.099 345.974 505.917 346.892 505.917 346.892L505.4 347.76C505.4 347.76 504.681 346.992 503.295 346.992C502.444 346.992 501.625 347.36 501.625 348.295C501.625 350.149 506.151 349.648 506.151 352.42C506.151 353.789 504.965 354.775 503.279 354.775C501.241 354.775 500.172 353.555 500.172 353.555ZM510.937 352.286C510.937 349.447 514.628 349.38 516.081 349.38H516.549V349.163C516.549 347.543 515.663 346.992 514.461 346.992C513.075 346.992 512.09 347.794 512.09 347.794L511.555 346.925C511.555 346.925 512.657 345.974 514.544 345.974C516.565 345.974 517.684 347.092 517.684 349.197V354.574H516.599V353.656C516.599 353.238 516.632 352.954 516.632 352.954H516.599C516.599 352.954 515.897 354.775 513.793 354.775C512.39 354.775 510.937 353.956 510.937 352.286ZM512.106 352.219C512.106 353.004 512.724 353.806 513.977 353.806C515.58 353.806 516.549 352.136 516.549 350.683V350.316H516.064C514.745 350.316 512.106 350.366 512.106 352.219ZM520.371 356.478C520.371 356.478 521.406 357.063 522.642 357.063C524.279 357.063 525.581 356.294 525.581 354.424V353.656C525.581 353.338 525.615 353.054 525.615 353.054H525.581C525.08 353.99 524.229 354.524 522.926 354.524C520.671 354.524 519.185 352.737 519.185 350.215C519.185 347.694 520.571 345.974 522.826 345.974C525.047 345.974 525.598 347.376 525.598 347.376H525.631C525.631 347.376 525.615 347.276 525.615 347.092V346.174H526.717V354.374C526.717 357.046 524.746 358.081 522.692 358.081C521.723 358.081 520.755 357.831 519.937 357.413L520.371 356.478ZM523.11 353.505C524.429 353.505 525.598 352.687 525.598 350.215C525.598 347.76 524.429 347.009 522.943 347.009C521.306 347.009 520.354 348.195 520.354 350.199C520.354 352.203 521.44 353.505 523.11 353.505ZM528.276 350.332C528.276 347.844 530.264 345.974 532.718 345.974C535.173 345.974 537.161 347.844 537.161 350.332C537.161 352.871 535.173 354.775 532.718 354.775C530.264 354.775 528.276 352.871 528.276 350.332ZM529.445 350.332C529.445 352.286 530.915 353.756 532.718 353.756C534.522 353.756 535.992 352.286 535.992 350.332C535.992 348.428 534.522 347.009 532.718 347.009C530.915 347.009 529.445 348.428 529.445 350.332Z" fill="black"/>
<rect x="180.005" y="293.301" width="390.371" height="89.7644" rx="16.7004" fill="white"/>
<circle cx="228.019" cy="338.183" r="31.3132" fill="#F3F1F1"/>
<path d="M293.504 329.133V316.628H288.64V314.311H301.061V316.628H296.197V329.133H293.504ZM302.034 329.133V314.311H304.685V319.446C304.685 319.968 304.643 320.344 304.643 320.344H304.685C305.207 319.321 306.501 318.236 308.359 318.236C310.718 318.236 312.054 319.467 312.054 322.285V329.133H309.424V322.828C309.424 321.534 309.09 320.657 307.733 320.657C306.334 320.657 305.249 321.576 304.852 322.87C304.727 323.287 304.685 323.747 304.685 324.248V329.133H302.034ZM314.274 316.67V314.311H316.905V316.67H314.274ZM314.274 329.133V318.486H316.926V329.133H314.274ZM318.38 327.817L319.591 325.96C319.591 325.96 320.76 327.129 322.492 327.129C323.244 327.129 323.891 326.795 323.891 326.168C323.891 324.582 318.714 324.79 318.714 321.367C318.714 319.384 320.488 318.236 322.785 318.236C325.185 318.236 326.354 319.446 326.354 319.446L325.373 321.409C325.373 321.409 324.392 320.49 322.764 320.49C322.075 320.49 321.407 320.782 321.407 321.45C321.407 322.953 326.584 322.766 326.584 326.189C326.584 327.964 325.039 329.383 322.513 329.383C319.862 329.383 318.38 327.817 318.38 327.817ZM332.668 329.133V314.311H335.319V318.883C335.319 319.405 335.278 319.78 335.278 319.78H335.319C335.319 319.78 336.259 318.236 338.513 318.236C341.394 318.236 343.231 320.511 343.231 323.809C343.231 327.191 341.165 329.383 338.346 329.383C336.134 329.383 335.173 327.797 335.173 327.797H335.132C335.132 327.797 335.173 328.11 335.173 328.527V329.133H332.668ZM335.236 323.872C335.236 325.521 336.113 327.149 337.887 327.149C339.348 327.149 340.559 325.96 340.559 323.851C340.559 321.826 339.474 320.511 337.908 320.511C336.53 320.511 335.236 321.513 335.236 323.872ZM344.075 323.809C344.075 320.553 346.684 318.236 349.92 318.236C353.176 318.236 355.786 320.553 355.786 323.809C355.786 327.087 353.176 329.383 349.941 329.383C346.684 329.383 344.075 327.087 344.075 323.809ZM346.768 323.809C346.768 325.792 348.208 327.129 349.941 327.129C351.652 327.129 353.093 325.792 353.093 323.809C353.093 321.847 351.652 320.49 349.941 320.49C348.208 320.49 346.768 321.847 346.768 323.809ZM357.812 325.229V320.762H356.434V318.653H357.875V315.584H360.463V318.653H362.885V320.762H360.463V324.895C360.463 326.648 361.841 326.899 362.572 326.899C362.864 326.899 363.052 326.857 363.052 326.857V329.174C363.052 329.174 362.739 329.237 362.238 329.237C360.756 329.237 357.812 328.799 357.812 325.229ZM369.174 316.67V314.311H371.804V316.67H369.174ZM369.174 318.486H371.825V329.446C371.825 333.015 368.84 333.454 367.379 333.454C366.878 333.454 366.564 333.391 366.564 333.391V331.157C366.564 331.157 366.752 331.199 367.024 331.199C367.775 331.199 369.174 330.97 369.174 329.237V318.486ZM374.031 325.333V318.486H376.682V324.79C376.682 326.085 377.016 326.962 378.331 326.962C380.252 326.962 381.316 325.271 381.316 323.371V318.486H383.968V329.133H381.421V327.922C381.421 327.504 381.463 327.17 381.463 327.17H381.421C380.899 328.277 379.542 329.383 377.726 329.383C375.45 329.383 374.031 328.235 374.031 325.333ZM385.438 327.817L386.649 325.96C386.649 325.96 387.818 327.129 389.551 327.129C390.302 327.129 390.949 326.795 390.949 326.168C390.949 324.582 385.772 324.79 385.772 321.367C385.772 319.384 387.547 318.236 389.843 318.236C392.244 318.236 393.413 319.446 393.413 319.446L392.432 321.409C392.432 321.409 391.45 320.49 389.822 320.49C389.133 320.49 388.465 320.782 388.465 321.45C388.465 322.953 393.642 322.766 393.642 326.189C393.642 327.964 392.098 329.383 389.572 329.383C386.92 329.383 385.438 327.817 385.438 327.817ZM395.672 325.229V320.762H394.294V318.653H395.734V315.584H398.323V318.653H400.745V320.762H398.323V324.895C398.323 326.648 399.701 326.899 400.431 326.899C400.724 326.899 400.912 326.857 400.912 326.857V329.174C400.912 329.174 400.598 329.237 400.097 329.237C398.615 329.237 395.672 328.799 395.672 325.229ZM406.136 327.817L407.347 325.96C407.347 325.96 408.516 327.129 410.248 327.129C411 327.129 411.647 326.795 411.647 326.168C411.647 324.582 406.47 324.79 406.47 321.367C406.47 319.384 408.244 318.236 410.541 318.236C412.941 318.236 414.11 319.446 414.11 319.446L413.129 321.409C413.129 321.409 412.148 320.49 410.52 320.49C409.831 320.49 409.163 320.782 409.163 321.45C409.163 322.953 414.34 322.766 414.34 326.189C414.34 327.964 412.795 329.383 410.269 329.383C407.618 329.383 406.136 327.817 406.136 327.817ZM416.369 325.229V320.762H414.992V318.653H416.432V315.584H419.021V318.653H421.442V320.762H419.021V324.895C419.021 326.648 420.398 326.899 421.129 326.899C421.421 326.899 421.609 326.857 421.609 326.857V329.174C421.609 329.174 421.296 329.237 420.795 329.237C419.313 329.237 416.369 328.799 416.369 325.229ZM422.319 326.064C422.319 322.682 426.891 322.452 428.624 322.452H428.979V322.306C428.979 320.908 428.102 320.428 426.933 320.428C425.409 320.428 424.01 321.45 424.01 321.45L423.008 319.551C423.008 319.551 424.657 318.236 427.183 318.236C429.981 318.236 431.609 319.78 431.609 322.473V329.133H429.167V328.256C429.167 327.838 429.208 327.504 429.208 327.504H429.167C429.187 327.504 428.352 329.383 425.931 329.383C424.031 329.383 422.319 328.193 422.319 326.064ZM424.991 325.939C424.991 326.648 425.513 327.316 426.599 327.316C427.997 327.316 429 325.813 429 324.519V324.269H428.54C427.183 324.269 424.991 324.456 424.991 325.939ZM433.806 329.133V318.486H436.353V320.323C436.353 320.72 436.311 321.075 436.311 321.075H436.353C436.833 319.551 438.106 318.34 439.735 318.34C439.985 318.34 440.215 318.382 440.215 318.382V320.991C440.215 320.991 439.943 320.949 439.589 320.949C438.461 320.949 437.188 321.597 436.687 323.183C436.52 323.705 436.457 324.289 436.457 324.916V329.133H433.806ZM441.898 325.229V320.762H440.521V318.653H441.961V315.584H444.55V318.653H446.971V320.762H444.55V324.895C444.55 326.648 445.927 326.899 446.658 326.899C446.95 326.899 447.138 326.857 447.138 326.857V329.174C447.138 329.174 446.825 329.237 446.324 329.237C444.842 329.237 441.898 328.799 441.898 325.229ZM447.995 323.809C447.995 320.532 450.228 318.236 453.401 318.236C456.47 318.236 458.119 320.469 458.119 323.287C458.119 323.601 458.057 324.31 458.057 324.31H450.708C450.875 326.168 452.316 327.129 453.902 327.129C455.614 327.129 456.971 325.96 456.971 325.96L457.994 327.859C457.994 327.859 456.366 329.383 453.714 329.383C450.186 329.383 447.995 326.836 447.995 323.809ZM450.792 322.494H455.447C455.405 321.054 454.508 320.281 453.339 320.281C451.982 320.281 451.042 321.116 450.792 322.494ZM459.012 323.809C459.012 320.428 461.016 318.236 463.834 318.236C466.173 318.236 466.903 319.592 466.903 319.592H466.945C466.945 319.592 466.924 319.321 466.924 318.987V314.311H469.575V329.133H467.07V328.256C467.07 327.859 467.112 327.567 467.112 327.567H467.07C467.07 327.567 466.173 329.383 463.73 329.383C460.849 329.383 459.012 327.108 459.012 323.809ZM461.684 323.809C461.684 325.834 462.77 327.149 464.335 327.149C465.713 327.149 467.008 326.147 467.008 323.788C467.008 322.139 466.131 320.511 464.356 320.511C462.895 320.511 461.684 321.701 461.684 323.809Z" fill="black"/>
<path d="M292.356 350.095V340.729H288.659V339.823H297.047V340.729H293.364V350.095H292.356ZM297.783 350.095V339.823H298.777V343.797C298.777 344.133 298.748 344.396 298.748 344.396H298.777C299.055 343.695 300.034 342.57 301.7 342.57C303.512 342.57 304.155 343.607 304.155 345.419V350.095H303.161V345.682C303.161 344.528 302.986 343.505 301.568 343.505C300.311 343.505 299.23 344.367 298.894 345.595C298.806 345.887 298.777 346.223 298.777 346.574V350.095H297.783ZM305.854 341.065V339.823H306.892V341.065H305.854ZM305.883 350.095V342.745H306.877V350.095H305.883ZM308.118 349.204L308.659 348.488C308.659 348.488 309.477 349.379 310.851 349.379C311.64 349.379 312.327 348.985 312.327 348.21C312.327 346.603 308.367 346.998 308.367 344.601C308.367 343.286 309.551 342.57 310.88 342.57C312.429 342.57 313.145 343.374 313.145 343.374L312.692 344.133C312.692 344.133 312.064 343.461 310.851 343.461C310.106 343.461 309.39 343.783 309.39 344.601C309.39 346.223 313.35 345.785 313.35 348.21C313.35 349.409 312.312 350.271 310.836 350.271C309.054 350.271 308.118 349.204 308.118 349.204ZM317.996 350.095V339.823H318.99V343.388C318.99 343.724 318.961 343.987 318.961 343.987H318.99C318.99 343.987 319.604 342.57 321.489 342.57C323.462 342.57 324.689 344.148 324.689 346.428C324.689 348.751 323.301 350.271 321.372 350.271C319.618 350.271 318.961 348.839 318.961 348.839H318.932C318.932 348.839 318.961 349.087 318.961 349.438V350.095H317.996ZM318.961 346.442C318.961 347.918 319.721 349.394 321.299 349.394C322.599 349.394 323.666 348.298 323.666 346.428C323.666 344.63 322.716 343.476 321.343 343.476C320.115 343.476 318.961 344.353 318.961 346.442ZM325.499 346.384C325.499 344.206 327.237 342.57 329.386 342.57C331.534 342.57 333.273 344.206 333.273 346.384C333.273 348.605 331.534 350.271 329.386 350.271C327.237 350.271 325.499 348.605 325.499 346.384ZM326.521 346.384C326.521 348.094 327.807 349.379 329.386 349.379C330.964 349.379 332.25 348.094 332.25 346.384C332.25 344.718 330.964 343.476 329.386 343.476C327.807 343.476 326.521 344.718 326.521 346.384ZM334.845 347.421V343.666H333.88V342.833H334.859V340.714H335.839V342.833H337.68V343.666H335.839V347.319C335.839 349.043 336.934 349.263 337.49 349.263C337.694 349.263 337.826 349.233 337.826 349.233V350.125C337.826 350.125 337.665 350.154 337.402 350.154C336.555 350.154 334.845 349.876 334.845 347.421ZM342.247 341.065V339.823H343.27V341.065H342.247ZM342.262 342.745H343.256V350.373C343.256 352.813 341.517 353.106 340.698 353.106C340.435 353.106 340.26 353.062 340.26 353.062V352.2C340.26 352.2 340.392 352.214 340.581 352.214C341.151 352.214 342.262 352.01 342.262 350.329V342.745ZM344.994 347.421V342.745H345.988V347.158C345.988 348.313 346.163 349.336 347.58 349.336C349.261 349.336 350.298 347.86 350.298 346.267V342.745H351.292V350.095H350.328V348.999C350.328 348.678 350.357 348.415 350.357 348.415H350.328C350.035 349.131 349.071 350.271 347.449 350.271C345.725 350.271 344.994 349.336 344.994 347.421ZM352.526 349.204L353.066 348.488C353.066 348.488 353.885 349.379 355.258 349.379C356.047 349.379 356.734 348.985 356.734 348.21C356.734 346.603 352.774 346.998 352.774 344.601C352.774 343.286 353.958 342.57 355.287 342.57C356.836 342.57 357.552 343.374 357.552 343.374L357.099 344.133C357.099 344.133 356.471 343.461 355.258 343.461C354.513 343.461 353.797 343.783 353.797 344.601C353.797 346.223 357.757 345.785 357.757 348.21C357.757 349.409 356.719 350.271 355.244 350.271C353.461 350.271 352.526 349.204 352.526 349.204ZM359.319 347.421V343.666H358.354V342.833H359.334V340.714H360.313V342.833H362.154V343.666H360.313V347.319C360.313 349.043 361.409 349.263 361.964 349.263C362.168 349.263 362.3 349.233 362.3 349.233V350.125C362.3 350.125 362.139 350.154 361.876 350.154C361.029 350.154 359.319 349.876 359.319 347.421ZM366.137 349.204L366.678 348.488C366.678 348.488 367.496 349.379 368.87 349.379C369.659 349.379 370.345 348.985 370.345 348.21C370.345 346.603 366.385 346.998 366.385 344.601C366.385 343.286 367.569 342.57 368.899 342.57C370.448 342.57 371.164 343.374 371.164 343.374L370.711 344.133C370.711 344.133 370.082 343.461 368.87 343.461C368.124 343.461 367.408 343.783 367.408 344.601C367.408 346.223 371.368 345.785 371.368 348.21C371.368 349.409 370.331 350.271 368.855 350.271C367.072 350.271 366.137 349.204 366.137 349.204ZM372.93 347.421V343.666H371.966V342.833H372.945V340.714H373.924V342.833H375.765V343.666H373.924V347.319C373.924 349.043 375.02 349.263 375.575 349.263C375.78 349.263 375.911 349.233 375.911 349.233V350.125C375.911 350.125 375.751 350.154 375.488 350.154C374.64 350.154 372.93 349.876 372.93 347.421ZM376.386 348.094C376.386 345.609 379.615 345.551 380.887 345.551H381.296V345.361C381.296 343.943 380.521 343.461 379.469 343.461C378.256 343.461 377.394 344.163 377.394 344.163L376.927 343.403C376.927 343.403 377.891 342.57 379.542 342.57C381.311 342.57 382.29 343.549 382.29 345.39V350.095H381.34V349.292C381.34 348.926 381.369 348.678 381.369 348.678H381.34C381.34 348.678 380.726 350.271 378.885 350.271C377.657 350.271 376.386 349.555 376.386 348.094ZM377.409 348.035C377.409 348.722 377.95 349.423 379.046 349.423C380.448 349.423 381.296 347.962 381.296 346.691V346.369H380.872C379.718 346.369 377.409 346.413 377.409 348.035ZM384.015 350.095V342.745H384.994V344.046C384.994 344.367 384.965 344.63 384.965 344.63H384.994C385.345 343.52 386.163 342.672 387.317 342.672C387.522 342.672 387.712 342.716 387.712 342.716V343.695C387.712 343.695 387.537 343.666 387.347 343.666C386.309 343.666 385.535 344.484 385.213 345.565C385.067 346.033 385.009 346.53 385.009 346.998V350.095H384.015ZM388.939 347.421V343.666H387.975V342.833H388.954V340.714H389.933V342.833H391.774V343.666H389.933V347.319C389.933 349.043 391.029 349.263 391.584 349.263C391.788 349.263 391.92 349.233 391.92 349.233V350.125C391.92 350.125 391.759 350.154 391.496 350.154C390.649 350.154 388.939 349.876 388.939 347.421ZM392.482 346.428C392.482 344.017 394.119 342.57 396.106 342.57C398.138 342.57 399.175 344.133 399.175 345.96C399.175 346.135 399.146 346.471 399.146 346.471H393.505C393.549 348.357 394.835 349.379 396.355 349.379C397.699 349.379 398.591 348.488 398.591 348.488L399.044 349.248C399.044 349.248 397.977 350.271 396.326 350.271C394.134 350.271 392.482 348.693 392.482 346.428ZM393.549 345.653H398.167C398.108 344.119 397.173 343.403 396.077 343.403C394.85 343.403 393.783 344.177 393.549 345.653ZM400.027 346.413C400.027 344.09 401.4 342.57 403.329 342.57C405.112 342.57 405.726 343.958 405.726 343.958H405.755C405.755 343.958 405.726 343.71 405.726 343.403V339.823H406.719V350.095H405.755V349.321C405.755 348.999 405.784 348.795 405.784 348.795H405.755C405.755 348.795 405.156 350.271 403.227 350.271C401.254 350.271 400.027 348.693 400.027 346.413ZM401.049 346.413C401.049 348.225 401.999 349.379 403.373 349.379C404.6 349.379 405.755 348.503 405.755 346.413C405.755 344.923 404.995 343.461 403.417 343.461C402.116 343.461 401.049 344.557 401.049 346.413ZM411.315 348.094C411.315 345.609 414.544 345.551 415.815 345.551H416.225V345.361C416.225 343.943 415.45 343.461 414.398 343.461C413.185 343.461 412.323 344.163 412.323 344.163L411.855 343.403C411.855 343.403 412.82 342.57 414.471 342.57C416.239 342.57 417.218 343.549 417.218 345.39V350.095H416.268V349.292C416.268 348.926 416.298 348.678 416.298 348.678H416.268C416.268 348.678 415.655 350.271 413.813 350.271C412.586 350.271 411.315 349.555 411.315 348.094ZM412.338 348.035C412.338 348.722 412.878 349.423 413.974 349.423C415.377 349.423 416.225 347.962 416.225 346.691V346.369H415.801C414.646 346.369 412.338 346.413 412.338 348.035ZM422.642 350.095V343.666H421.721V342.833H422.642V342.482C422.642 340.056 424.351 339.75 425.184 339.75C425.462 339.75 425.637 339.779 425.637 339.779V340.67C425.637 340.67 425.491 340.641 425.287 340.641C424.717 340.641 423.635 340.846 423.635 342.482V342.833H425.52V343.666H423.635V350.095H422.642ZM425.856 346.428C425.856 344.017 427.492 342.57 429.48 342.57C431.511 342.57 432.548 344.133 432.548 345.96C432.548 346.135 432.519 346.471 432.519 346.471H426.879C426.922 348.357 428.208 349.379 429.728 349.379C431.072 349.379 431.964 348.488 431.964 348.488L432.417 349.248C432.417 349.248 431.35 350.271 429.699 350.271C427.507 350.271 425.856 348.693 425.856 346.428ZM426.922 345.653H431.54C431.482 344.119 430.546 343.403 429.45 343.403C428.223 343.403 427.156 344.177 426.922 345.653ZM435.416 350.095L432.932 342.745H433.984L435.767 348.225C435.884 348.576 435.986 349.014 435.986 349.014H436.015C436.015 349.014 436.118 348.576 436.235 348.225L438.047 342.774H439.026L440.838 348.225C440.955 348.576 441.057 349.014 441.057 349.014H441.086C441.086 349.014 441.188 348.59 441.305 348.225L443.088 342.745H444.14L441.656 350.095H440.575L438.777 344.864C438.646 344.499 438.543 344.075 438.543 344.075H438.514C438.514 344.075 438.412 344.499 438.295 344.864L436.498 350.095H435.416ZM448.384 350.095V342.745H449.363V343.841C449.363 344.163 449.333 344.426 449.333 344.426H449.363C449.713 343.432 450.882 342.57 452.022 342.57C453.381 342.57 454.083 343.198 454.302 344.411H454.331C454.726 343.417 455.792 342.57 457.034 342.57C458.817 342.57 459.475 343.607 459.475 345.419V350.095H458.481V345.668C458.481 344.47 458.233 343.476 456.888 343.476C455.763 343.476 454.842 344.47 454.565 345.551C454.463 345.872 454.433 346.223 454.433 346.618V350.095H453.44V345.668C453.44 344.557 453.279 343.476 451.891 343.476C450.692 343.476 449.786 344.513 449.48 345.639C449.406 345.945 449.377 346.282 449.377 346.618V350.095H448.384ZM461.178 341.065V339.823H462.215V341.065H461.178ZM461.207 350.095V342.745H462.201V350.095H461.207ZM464.041 350.095V342.745H465.02V343.841C465.02 344.163 464.991 344.426 464.991 344.426H465.02C465.283 343.753 466.219 342.57 467.957 342.57C469.769 342.57 470.412 343.607 470.412 345.419V350.095H469.419V345.682C469.419 344.528 469.243 343.505 467.826 343.505C466.569 343.505 465.488 344.367 465.152 345.58C465.064 345.887 465.035 346.223 465.035 346.574V350.095H464.041ZM471.542 349.204L472.083 348.488C472.083 348.488 472.901 349.379 474.275 349.379C475.064 349.379 475.75 348.985 475.75 348.21C475.75 346.603 471.79 346.998 471.79 344.601C471.79 343.286 472.974 342.57 474.304 342.57C475.853 342.57 476.569 343.374 476.569 343.374L476.116 344.133C476.116 344.133 475.487 343.461 474.275 343.461C473.529 343.461 472.813 343.783 472.813 344.601C472.813 346.223 476.773 345.785 476.773 348.21C476.773 349.409 475.736 350.271 474.26 350.271C472.477 350.271 471.542 349.204 471.542 349.204ZM480.821 348.094C480.821 345.609 484.05 345.551 485.321 345.551H485.731V345.361C485.731 343.943 484.956 343.461 483.904 343.461C482.691 343.461 481.829 344.163 481.829 344.163L481.361 343.403C481.361 343.403 482.326 342.57 483.977 342.57C485.745 342.57 486.724 343.549 486.724 345.39V350.095H485.774V349.292C485.774 348.926 485.804 348.678 485.804 348.678H485.774C485.774 348.678 485.161 350.271 483.32 350.271C482.092 350.271 480.821 349.555 480.821 348.094ZM481.844 348.035C481.844 348.722 482.384 349.423 483.48 349.423C484.883 349.423 485.731 347.962 485.731 346.691V346.369H485.307C484.152 346.369 481.844 346.413 481.844 348.035ZM489.005 351.761C489.005 351.761 489.911 352.273 490.992 352.273C492.424 352.273 493.564 351.601 493.564 349.964V349.292C493.564 349.014 493.593 348.766 493.593 348.766H493.564C493.126 349.584 492.38 350.052 491.241 350.052C489.268 350.052 487.967 348.488 487.967 346.282C487.967 344.075 489.18 342.57 491.153 342.57C493.096 342.57 493.579 343.797 493.579 343.797H493.608C493.608 343.797 493.593 343.71 493.593 343.549V342.745H494.558V349.92C494.558 352.258 492.833 353.164 491.036 353.164C490.188 353.164 489.341 352.945 488.625 352.58L489.005 351.761ZM491.401 349.16C492.556 349.16 493.579 348.444 493.579 346.282C493.579 344.133 492.556 343.476 491.255 343.476C489.823 343.476 488.99 344.513 488.99 346.267C488.99 348.02 489.94 349.16 491.401 349.16ZM495.852 346.384C495.852 344.206 497.591 342.57 499.739 342.57C501.887 342.57 503.626 344.206 503.626 346.384C503.626 348.605 501.887 350.271 499.739 350.271C497.591 350.271 495.852 348.605 495.852 346.384ZM496.875 346.384C496.875 348.094 498.161 349.379 499.739 349.379C501.317 349.379 502.603 348.094 502.603 346.384C502.603 344.718 501.317 343.476 499.739 343.476C498.161 343.476 496.875 344.718 496.875 346.384Z" fill="#4F5153"/>
<rect x="180.005" y="403.593" width="389.327" height="90.1123" rx="16.7004" fill="white"/>
<circle cx="228.019" cy="448.475" r="31.3132" fill="#D9D9D9"/>
<path d="M293.504 439.424V426.919H288.64V424.602H301.061V426.919H296.197V439.424H293.504ZM302.034 439.424V424.602H304.685V429.738C304.685 430.26 304.643 430.635 304.643 430.635H304.685C305.207 429.612 306.501 428.527 308.359 428.527C310.718 428.527 312.054 429.758 312.054 432.577V439.424H309.424V433.119C309.424 431.825 309.09 430.948 307.733 430.948C306.334 430.948 305.249 431.867 304.852 433.161C304.727 433.579 304.685 434.038 304.685 434.539V439.424H302.034ZM314.274 426.961V424.602H316.905V426.961H314.274ZM314.274 439.424V428.777H316.926V439.424H314.274ZM318.38 438.109L319.591 436.251C319.591 436.251 320.76 437.42 322.492 437.42C323.244 437.42 323.891 437.086 323.891 436.46C323.891 434.873 318.714 435.082 318.714 431.658C318.714 429.675 320.488 428.527 322.785 428.527C325.185 428.527 326.354 429.738 326.354 429.738L325.373 431.7C325.373 431.7 324.392 430.781 322.764 430.781C322.075 430.781 321.407 431.074 321.407 431.742C321.407 433.245 326.584 433.057 326.584 436.48C326.584 438.255 325.039 439.674 322.513 439.674C319.862 439.674 318.38 438.109 318.38 438.109ZM332.668 439.424V424.602H335.319V429.174C335.319 429.696 335.278 430.072 335.278 430.072H335.319C335.319 430.072 336.259 428.527 338.513 428.527C341.394 428.527 343.231 430.802 343.231 434.101C343.231 437.482 341.165 439.674 338.346 439.674C336.134 439.674 335.173 438.088 335.173 438.088H335.132C335.132 438.088 335.173 438.401 335.173 438.818V439.424H332.668ZM335.236 434.163C335.236 435.812 336.113 437.441 337.887 437.441C339.348 437.441 340.559 436.251 340.559 434.142C340.559 432.117 339.474 430.802 337.908 430.802C336.53 430.802 335.236 431.804 335.236 434.163ZM344.075 434.101C344.075 430.844 346.684 428.527 349.92 428.527C353.176 428.527 355.786 430.844 355.786 434.101C355.786 437.378 353.176 439.674 349.941 439.674C346.684 439.674 344.075 437.378 344.075 434.101ZM346.768 434.101C346.768 436.084 348.208 437.42 349.941 437.42C351.652 437.42 353.093 436.084 353.093 434.101C353.093 432.138 351.652 430.781 349.941 430.781C348.208 430.781 346.768 432.138 346.768 434.101ZM357.812 435.52V431.053H356.434V428.944H357.875V425.876H360.463V428.944H362.885V431.053H360.463V435.186C360.463 436.94 361.841 437.19 362.572 437.19C362.864 437.19 363.052 437.148 363.052 437.148V439.466C363.052 439.466 362.739 439.528 362.238 439.528C360.756 439.528 357.812 439.09 357.812 435.52ZM369.174 426.961V424.602H371.804V426.961H369.174ZM369.174 428.777H371.825V439.737C371.825 443.307 368.84 443.745 367.379 443.745C366.878 443.745 366.564 443.682 366.564 443.682V441.449C366.564 441.449 366.752 441.49 367.024 441.49C367.775 441.49 369.174 441.261 369.174 439.528V428.777ZM374.031 435.624V428.777H376.682V435.082C376.682 436.376 377.016 437.253 378.331 437.253C380.252 437.253 381.316 435.562 381.316 433.662V428.777H383.968V439.424H381.421V438.213C381.421 437.796 381.463 437.462 381.463 437.462H381.421C380.899 438.568 379.542 439.674 377.726 439.674C375.45 439.674 374.031 438.526 374.031 435.624ZM385.438 438.109L386.649 436.251C386.649 436.251 387.818 437.42 389.551 437.42C390.302 437.42 390.949 437.086 390.949 436.46C390.949 434.873 385.772 435.082 385.772 431.658C385.772 429.675 387.547 428.527 389.843 428.527C392.244 428.527 393.413 429.738 393.413 429.738L392.432 431.7C392.432 431.7 391.45 430.781 389.822 430.781C389.133 430.781 388.465 431.074 388.465 431.742C388.465 433.245 393.642 433.057 393.642 436.48C393.642 438.255 392.098 439.674 389.572 439.674C386.92 439.674 385.438 438.109 385.438 438.109ZM395.672 435.52V431.053H394.294V428.944H395.734V425.876H398.323V428.944H400.745V431.053H398.323V435.186C398.323 436.94 399.701 437.19 400.431 437.19C400.724 437.19 400.912 437.148 400.912 437.148V439.466C400.912 439.466 400.598 439.528 400.097 439.528C398.615 439.528 395.672 439.09 395.672 435.52ZM406.136 438.109L407.347 436.251C407.347 436.251 408.516 437.42 410.248 437.42C411 437.42 411.647 437.086 411.647 436.46C411.647 434.873 406.47 435.082 406.47 431.658C406.47 429.675 408.244 428.527 410.541 428.527C412.941 428.527 414.11 429.738 414.11 429.738L413.129 431.7C413.129 431.7 412.148 430.781 410.52 430.781C409.831 430.781 409.163 431.074 409.163 431.742C409.163 433.245 414.34 433.057 414.34 436.48C414.34 438.255 412.795 439.674 410.269 439.674C407.618 439.674 406.136 438.109 406.136 438.109ZM416.369 435.52V431.053H414.992V428.944H416.432V425.876H419.021V428.944H421.442V431.053H419.021V435.186C419.021 436.94 420.398 437.19 421.129 437.19C421.421 437.19 421.609 437.148 421.609 437.148V439.466C421.609 439.466 421.296 439.528 420.795 439.528C419.313 439.528 416.369 439.09 416.369 435.52ZM422.319 436.355C422.319 432.973 426.891 432.744 428.624 432.744H428.979V432.598C428.979 431.199 428.102 430.719 426.933 430.719C425.409 430.719 424.01 431.742 424.01 431.742L423.008 429.842C423.008 429.842 424.657 428.527 427.183 428.527C429.981 428.527 431.609 430.072 431.609 432.765V439.424H429.167V438.547C429.167 438.13 429.208 437.796 429.208 437.796H429.167C429.187 437.796 428.352 439.674 425.931 439.674C424.031 439.674 422.319 438.484 422.319 436.355ZM424.991 436.23C424.991 436.94 425.513 437.608 426.599 437.608C427.997 437.608 429 436.105 429 434.81V434.56H428.54C427.183 434.56 424.991 434.748 424.991 436.23ZM433.806 439.424V428.777H436.353V430.614C436.353 431.011 436.311 431.366 436.311 431.366H436.353C436.833 429.842 438.106 428.631 439.735 428.631C439.985 428.631 440.215 428.673 440.215 428.673V431.282C440.215 431.282 439.943 431.241 439.589 431.241C438.461 431.241 437.188 431.888 436.687 433.474C436.52 433.996 436.457 434.581 436.457 435.207V439.424H433.806ZM441.898 435.52V431.053H440.521V428.944H441.961V425.876H444.55V428.944H446.971V431.053H444.55V435.186C444.55 436.94 445.927 437.19 446.658 437.19C446.95 437.19 447.138 437.148 447.138 437.148V439.466C447.138 439.466 446.825 439.528 446.324 439.528C444.842 439.528 441.898 439.09 441.898 435.52ZM447.995 434.101C447.995 430.823 450.228 428.527 453.401 428.527C456.47 428.527 458.119 430.761 458.119 433.579C458.119 433.892 458.057 434.602 458.057 434.602H450.708C450.875 436.46 452.316 437.42 453.902 437.42C455.614 437.42 456.971 436.251 456.971 436.251L457.994 438.15C457.994 438.15 456.366 439.674 453.714 439.674C450.186 439.674 447.995 437.128 447.995 434.101ZM450.792 432.785H455.447C455.405 431.345 454.508 430.573 453.339 430.573C451.982 430.573 451.042 431.408 450.792 432.785ZM459.012 434.101C459.012 430.719 461.016 428.527 463.834 428.527C466.173 428.527 466.903 429.884 466.903 429.884H466.945C466.945 429.884 466.924 429.612 466.924 429.278V424.602H469.575V439.424H467.07V438.547C467.07 438.15 467.112 437.858 467.112 437.858H467.07C467.07 437.858 466.173 439.674 463.73 439.674C460.849 439.674 459.012 437.399 459.012 434.101ZM461.684 434.101C461.684 436.126 462.77 437.441 464.335 437.441C465.713 437.441 467.008 436.439 467.008 434.08C467.008 432.431 466.131 430.802 464.356 430.802C462.895 430.802 461.684 431.992 461.684 434.101Z" fill="black"/>
<path d="M292.899 465.562V454.857H288.674V453.822H298.26V454.857H294.051V465.562H292.899ZM299.182 465.562V453.822H300.318V458.364C300.318 458.748 300.284 459.049 300.284 459.049H300.318C300.635 458.247 301.754 456.961 303.658 456.961C305.728 456.961 306.463 458.147 306.463 460.218V465.562H305.328V460.519C305.328 459.199 305.127 458.03 303.507 458.03C302.071 458.03 300.835 459.015 300.451 460.418C300.351 460.752 300.318 461.136 300.318 461.537V465.562H299.182ZM308.486 455.241V453.822H309.672V455.241H308.486ZM308.519 465.562V457.162H309.655V465.562H308.519ZM311.154 464.543L311.772 463.725C311.772 463.725 312.707 464.744 314.277 464.744C315.179 464.744 315.964 464.293 315.964 463.408C315.964 461.571 311.438 462.022 311.438 459.283C311.438 457.78 312.791 456.961 314.31 456.961C316.081 456.961 316.899 457.88 316.899 457.88L316.381 458.748C316.381 458.748 315.663 457.98 314.277 457.98C313.425 457.98 312.607 458.347 312.607 459.283C312.607 461.136 317.133 460.635 317.133 463.408C317.133 464.777 315.947 465.762 314.26 465.762C312.223 465.762 311.154 464.543 311.154 464.543ZM322.604 465.562V453.822H323.739V457.897C323.739 458.281 323.706 458.581 323.706 458.581H323.739C323.739 458.581 324.441 456.961 326.595 456.961C328.849 456.961 330.252 458.765 330.252 461.37C330.252 464.026 328.666 465.762 326.461 465.762C324.457 465.762 323.706 464.126 323.706 464.126H323.672C323.672 464.126 323.706 464.41 323.706 464.81V465.562H322.604ZM323.706 461.387C323.706 463.074 324.574 464.76 326.378 464.76C327.864 464.76 329.083 463.508 329.083 461.37C329.083 459.316 327.998 457.997 326.428 457.997C325.025 457.997 323.706 458.999 323.706 461.387ZM331.258 461.32C331.258 458.832 333.245 456.961 335.7 456.961C338.155 456.961 340.142 458.832 340.142 461.32C340.142 463.859 338.155 465.762 335.7 465.762C333.245 465.762 331.258 463.859 331.258 461.32ZM332.427 461.32C332.427 463.274 333.896 464.744 335.7 464.744C337.504 464.744 338.973 463.274 338.973 461.32C338.973 459.416 337.504 457.997 335.7 457.997C333.896 457.997 332.427 459.416 332.427 461.32ZM342.02 462.506V458.214H340.917V457.262H342.036V454.84H343.155V457.262H345.259V458.214H343.155V462.389C343.155 464.36 344.408 464.61 345.042 464.61C345.276 464.61 345.426 464.577 345.426 464.577V465.595C345.426 465.595 345.243 465.629 344.942 465.629C343.974 465.629 342.02 465.312 342.02 462.506ZM350.64 455.241V453.822H351.809V455.241H350.64ZM350.657 457.162H351.793V465.879C351.793 468.668 349.805 469.002 348.87 469.002C348.569 469.002 348.369 468.952 348.369 468.952V467.967C348.369 467.967 348.519 467.984 348.736 467.984C349.388 467.984 350.657 467.75 350.657 465.829V457.162ZM353.859 462.506V457.162H354.995V462.205C354.995 463.525 355.195 464.694 356.815 464.694C358.736 464.694 359.922 463.007 359.922 461.187V457.162H361.057V465.562H359.955V464.309C359.955 463.942 359.988 463.641 359.988 463.641H359.955C359.621 464.46 358.519 465.762 356.665 465.762C354.694 465.762 353.859 464.694 353.859 462.506ZM362.547 464.543L363.165 463.725C363.165 463.725 364.101 464.744 365.67 464.744C366.572 464.744 367.357 464.293 367.357 463.408C367.357 461.571 362.831 462.022 362.831 459.283C362.831 457.78 364.184 456.961 365.704 456.961C367.474 456.961 368.292 457.88 368.292 457.88L367.775 458.748C367.775 458.748 367.057 457.98 365.67 457.98C364.819 457.98 364 458.347 364 459.283C364 461.136 368.526 460.635 368.526 463.408C368.526 464.777 367.34 465.762 365.654 465.762C363.616 465.762 362.547 464.543 362.547 464.543ZM370.392 462.506V458.214H369.289V457.262H370.408V454.84H371.527V457.262H373.631V458.214H371.527V462.389C371.527 464.36 372.78 464.61 373.414 464.61C373.648 464.61 373.798 464.577 373.798 464.577V465.595C373.798 465.595 373.615 465.629 373.314 465.629C372.345 465.629 370.392 465.312 370.392 462.506ZM378.344 464.543L378.962 463.725C378.962 463.725 379.897 464.744 381.467 464.744C382.369 464.744 383.154 464.293 383.154 463.408C383.154 461.571 378.628 462.022 378.628 459.283C378.628 457.78 379.981 456.961 381.5 456.961C383.271 456.961 384.089 457.88 384.089 457.88L383.571 458.748C383.571 458.748 382.853 457.98 381.467 457.98C380.615 457.98 379.797 458.347 379.797 459.283C379.797 461.136 384.323 460.635 384.323 463.408C384.323 464.777 383.137 465.762 381.45 465.762C379.413 465.762 378.344 464.543 378.344 464.543ZM386.188 462.506V458.214H385.086V457.262H386.205V454.84H387.324V457.262H389.428V458.214H387.324V462.389C387.324 464.36 388.576 464.61 389.211 464.61C389.445 464.61 389.595 464.577 389.595 464.577V465.595C389.595 465.595 389.411 465.629 389.111 465.629C388.142 465.629 386.188 465.312 386.188 462.506ZM390.218 463.274C390.218 460.435 393.909 460.368 395.362 460.368H395.829V460.151C395.829 458.531 394.944 457.98 393.742 457.98C392.356 457.98 391.37 458.782 391.37 458.782L390.836 457.913C390.836 457.913 391.938 456.961 393.825 456.961C395.846 456.961 396.965 458.08 396.965 460.184V465.562H395.879V464.643C395.879 464.226 395.913 463.942 395.913 463.942H395.879C395.879 463.942 395.178 465.762 393.074 465.762C391.671 465.762 390.218 464.944 390.218 463.274ZM391.387 463.207C391.387 463.992 392.005 464.794 393.258 464.794C394.861 464.794 395.829 463.124 395.829 461.671V461.303H395.345C394.026 461.303 391.387 461.354 391.387 463.207ZM399.017 465.562V457.162H400.136V458.648C400.136 459.015 400.102 459.316 400.102 459.316H400.136C400.537 458.047 401.472 457.078 402.791 457.078C403.025 457.078 403.242 457.128 403.242 457.128V458.247C403.242 458.247 403.042 458.214 402.825 458.214C401.639 458.214 400.754 459.149 400.386 460.385C400.219 460.919 400.153 461.487 400.153 462.022V465.562H399.017ZM404.725 462.506V458.214H403.623V457.262H404.742V454.84H405.86V457.262H407.965V458.214H405.86V462.389C405.86 464.36 407.113 464.61 407.748 464.61C407.981 464.61 408.132 464.577 408.132 464.577V465.595C408.132 465.595 407.948 465.629 407.647 465.629C406.679 465.629 404.725 465.312 404.725 462.506ZM408.855 461.37C408.855 458.615 410.725 456.961 412.997 456.961C415.318 456.961 416.504 458.748 416.504 460.836C416.504 461.036 416.47 461.42 416.47 461.42H410.024C410.074 463.575 411.544 464.744 413.28 464.744C414.817 464.744 415.836 463.725 415.836 463.725L416.353 464.593C416.353 464.593 415.134 465.762 413.247 465.762C410.742 465.762 408.855 463.959 408.855 461.37ZM410.074 460.485H415.351C415.284 458.732 414.216 457.913 412.963 457.913C411.56 457.913 410.341 458.798 410.074 460.485ZM417.557 461.354C417.557 458.698 419.127 456.961 421.331 456.961C423.369 456.961 424.07 458.548 424.07 458.548H424.104C424.104 458.548 424.07 458.264 424.07 457.913V453.822H425.206V465.562H424.104V464.677C424.104 464.309 424.137 464.076 424.137 464.076H424.104C424.104 464.076 423.419 465.762 421.214 465.762C418.96 465.762 417.557 463.959 417.557 461.354ZM418.726 461.354C418.726 463.424 419.812 464.744 421.381 464.744C422.784 464.744 424.104 463.742 424.104 461.354C424.104 459.65 423.235 457.98 421.431 457.98C419.945 457.98 418.726 459.233 418.726 461.354ZM430.618 463.274C430.618 460.435 434.309 460.368 435.762 460.368H436.23V460.151C436.23 458.531 435.344 457.98 434.142 457.98C432.756 457.98 431.771 458.782 431.771 458.782L431.236 457.913C431.236 457.913 432.338 456.961 434.226 456.961C436.246 456.961 437.365 458.08 437.365 460.184V465.562H436.28V464.643C436.28 464.226 436.313 463.942 436.313 463.942H436.28C436.28 463.942 435.578 465.762 433.474 465.762C432.071 465.762 430.618 464.944 430.618 463.274ZM431.787 463.207C431.787 463.992 432.405 464.794 433.658 464.794C435.261 464.794 436.23 463.124 436.23 461.671V461.303H435.745C434.426 461.303 431.787 461.354 431.787 463.207ZM443.724 465.562V458.214H442.672V457.262H443.724V456.861C443.724 454.089 445.678 453.738 446.63 453.738C446.947 453.738 447.148 453.772 447.148 453.772V454.79C447.148 454.79 446.981 454.757 446.747 454.757C446.096 454.757 444.86 454.991 444.86 456.861V457.262H447.014V458.214H444.86V465.562H443.724ZM447.477 461.37C447.477 458.615 449.348 456.961 451.619 456.961C453.94 456.961 455.126 458.748 455.126 460.836C455.126 461.036 455.093 461.42 455.093 461.42H448.646C448.697 463.575 450.166 464.744 451.903 464.744C453.439 464.744 454.458 463.725 454.458 463.725L454.976 464.593C454.976 464.593 453.757 465.762 451.87 465.762C449.365 465.762 447.477 463.959 447.477 461.37ZM448.697 460.485H453.974C453.907 458.732 452.838 457.913 451.586 457.913C450.183 457.913 448.964 458.798 448.697 460.485ZM458.484 465.562L455.645 457.162H456.848L458.885 463.424C459.019 463.825 459.136 464.326 459.136 464.326H459.169C459.169 464.326 459.286 463.825 459.419 463.424L461.49 457.195H462.609L464.68 463.424C464.814 463.825 464.931 464.326 464.931 464.326H464.964C464.964 464.326 465.081 463.842 465.214 463.424L467.252 457.162H468.454L465.615 465.562H464.379L462.325 459.583C462.175 459.166 462.058 458.681 462.058 458.681H462.025C462.025 458.681 461.908 459.166 461.774 459.583L459.72 465.562H458.484ZM473.465 465.562V457.162H474.584V458.414C474.584 458.782 474.55 459.082 474.55 459.082H474.584C474.984 457.947 476.32 456.961 477.623 456.961C479.176 456.961 479.978 457.679 480.228 459.066H480.262C480.713 457.93 481.932 456.961 483.351 456.961C485.389 456.961 486.14 458.147 486.14 460.218V465.562H485.005V460.502C485.005 459.132 484.721 457.997 483.184 457.997C481.898 457.997 480.846 459.132 480.529 460.368C480.412 460.736 480.379 461.136 480.379 461.587V465.562H479.243V460.502C479.243 459.233 479.059 457.997 477.473 457.997C476.103 457.997 475.068 459.182 474.717 460.468C474.634 460.819 474.6 461.203 474.6 461.587V465.562H473.465ZM488.167 455.241V453.822H489.353V455.241H488.167ZM488.2 465.562V457.162H489.336V465.562H488.2ZM491.52 465.562V457.162H492.639V458.414C492.639 458.782 492.605 459.082 492.605 459.082H492.639C492.939 458.314 494.008 456.961 495.995 456.961C498.066 456.961 498.801 458.147 498.801 460.218V465.562H497.665V460.519C497.665 459.199 497.465 458.03 495.845 458.03C494.409 458.03 493.173 459.015 492.789 460.402C492.689 460.752 492.655 461.136 492.655 461.537V465.562H491.52ZM500.172 464.543L500.79 463.725C500.79 463.725 501.725 464.744 503.295 464.744C504.197 464.744 504.982 464.293 504.982 463.408C504.982 461.571 500.456 462.022 500.456 459.283C500.456 457.78 501.809 456.961 503.329 456.961C505.099 456.961 505.917 457.88 505.917 457.88L505.4 458.748C505.4 458.748 504.681 457.98 503.295 457.98C502.444 457.98 501.625 458.347 501.625 459.283C501.625 461.136 506.151 460.635 506.151 463.408C506.151 464.777 504.965 465.762 503.279 465.762C501.241 465.762 500.172 464.543 500.172 464.543ZM510.937 463.274C510.937 460.435 514.628 460.368 516.081 460.368H516.549V460.151C516.549 458.531 515.663 457.98 514.461 457.98C513.075 457.98 512.09 458.782 512.09 458.782L511.555 457.913C511.555 457.913 512.657 456.961 514.544 456.961C516.565 456.961 517.684 458.08 517.684 460.184V465.562H516.599V464.643C516.599 464.226 516.632 463.942 516.632 463.942H516.599C516.599 463.942 515.897 465.762 513.793 465.762C512.39 465.762 510.937 464.944 510.937 463.274ZM512.106 463.207C512.106 463.992 512.724 464.794 513.977 464.794C515.58 464.794 516.549 463.124 516.549 461.671V461.303H516.064C514.745 461.303 512.106 461.354 512.106 463.207ZM520.371 467.466C520.371 467.466 521.406 468.05 522.642 468.05C524.279 468.05 525.581 467.282 525.581 465.412V464.643C525.581 464.326 525.615 464.042 525.615 464.042H525.581C525.08 464.977 524.229 465.512 522.926 465.512C520.671 465.512 519.185 463.725 519.185 461.203C519.185 458.681 520.571 456.961 522.826 456.961C525.047 456.961 525.598 458.364 525.598 458.364H525.631C525.631 458.364 525.615 458.264 525.615 458.08V457.162H526.717V465.362C526.717 468.034 524.746 469.069 522.692 469.069C521.723 469.069 520.755 468.819 519.937 468.401L520.371 467.466ZM523.11 464.493C524.429 464.493 525.598 463.675 525.598 461.203C525.598 458.748 524.429 457.997 522.943 457.997C521.306 457.997 520.354 459.182 520.354 461.187C520.354 463.191 521.44 464.493 523.11 464.493ZM528.276 461.32C528.276 458.832 530.264 456.961 532.718 456.961C535.173 456.961 537.161 458.832 537.161 461.32C537.161 463.859 535.173 465.762 532.718 465.762C530.264 465.762 528.276 463.859 528.276 461.32ZM529.445 461.32C529.445 463.274 530.915 464.744 532.718 464.744C534.522 464.744 535.992 463.274 535.992 461.32C535.992 459.416 534.522 457.997 532.718 457.997C530.915 457.997 529.445 459.416 529.445 461.32Z" fill="black"/>
<rect x="180.005" y="403.94" width="390.371" height="89.7644" rx="16.7004" fill="white"/>
<circle cx="228.019" cy="448.822" r="31.3132" fill="#F3F1F1"/>
<path d="M293.504 439.772V427.268H288.64V424.95H301.061V427.268H296.197V439.772H293.504ZM302.034 439.772V424.95H304.685V430.086C304.685 430.608 304.643 430.983 304.643 430.983H304.685C305.207 429.961 306.501 428.875 308.359 428.875C310.718 428.875 312.054 430.107 312.054 432.925V439.772H309.424V433.468C309.424 432.173 309.09 431.297 307.733 431.297C306.334 431.297 305.249 432.215 304.852 433.509C304.727 433.927 304.685 434.386 304.685 434.887V439.772H302.034ZM314.274 427.309V424.95H316.905V427.309H314.274ZM314.274 439.772V429.125H316.926V439.772H314.274ZM318.38 438.457L319.591 436.599C319.591 436.599 320.76 437.768 322.492 437.768C323.244 437.768 323.891 437.434 323.891 436.808C323.891 435.221 318.714 435.43 318.714 432.006C318.714 430.023 320.488 428.875 322.785 428.875C325.185 428.875 326.354 430.086 326.354 430.086L325.373 432.048C325.373 432.048 324.392 431.13 322.764 431.13C322.075 431.13 321.407 431.422 321.407 432.09C321.407 433.593 326.584 433.405 326.584 436.829C326.584 438.603 325.039 440.022 322.513 440.022C319.862 440.022 318.38 438.457 318.38 438.457ZM332.668 439.772V424.95H335.319V429.522C335.319 430.044 335.278 430.42 335.278 430.42H335.319C335.319 430.42 336.259 428.875 338.513 428.875C341.394 428.875 343.231 431.15 343.231 434.449C343.231 437.831 341.165 440.022 338.346 440.022C336.134 440.022 335.173 438.436 335.173 438.436H335.132C335.132 438.436 335.173 438.749 335.173 439.167V439.772H332.668ZM335.236 434.511C335.236 436.161 336.113 437.789 337.887 437.789C339.348 437.789 340.559 436.599 340.559 434.49C340.559 432.466 339.474 431.15 337.908 431.15C336.53 431.15 335.236 432.152 335.236 434.511ZM344.075 434.449C344.075 431.192 346.684 428.875 349.92 428.875C353.176 428.875 355.786 431.192 355.786 434.449C355.786 437.726 353.176 440.022 349.941 440.022C346.684 440.022 344.075 437.726 344.075 434.449ZM346.768 434.449C346.768 436.432 348.208 437.768 349.941 437.768C351.652 437.768 353.093 436.432 353.093 434.449C353.093 432.486 351.652 431.13 349.941 431.13C348.208 431.13 346.768 432.486 346.768 434.449ZM357.812 435.868V431.401H356.434V429.292H357.875V426.224H360.463V429.292H362.885V431.401H360.463V435.534C360.463 437.288 361.841 437.538 362.572 437.538C362.864 437.538 363.052 437.497 363.052 437.497V439.814C363.052 439.814 362.739 439.876 362.238 439.876C360.756 439.876 357.812 439.438 357.812 435.868ZM369.174 427.309V424.95H371.804V427.309H369.174ZM369.174 429.125H371.825V440.085C371.825 443.655 368.84 444.093 367.379 444.093C366.878 444.093 366.564 444.031 366.564 444.031V441.797C366.564 441.797 366.752 441.839 367.024 441.839C367.775 441.839 369.174 441.609 369.174 439.876V429.125ZM374.031 435.973V429.125H376.682V435.43C376.682 436.724 377.016 437.601 378.331 437.601C380.252 437.601 381.316 435.91 381.316 434.01V429.125H383.968V439.772H381.421V438.561C381.421 438.144 381.463 437.81 381.463 437.81H381.421C380.899 438.916 379.542 440.022 377.726 440.022C375.45 440.022 374.031 438.874 374.031 435.973ZM385.438 438.457L386.649 436.599C386.649 436.599 387.818 437.768 389.551 437.768C390.302 437.768 390.949 437.434 390.949 436.808C390.949 435.221 385.772 435.43 385.772 432.006C385.772 430.023 387.547 428.875 389.843 428.875C392.244 428.875 393.413 430.086 393.413 430.086L392.432 432.048C392.432 432.048 391.45 431.13 389.822 431.13C389.133 431.13 388.465 431.422 388.465 432.09C388.465 433.593 393.642 433.405 393.642 436.829C393.642 438.603 392.098 440.022 389.572 440.022C386.92 440.022 385.438 438.457 385.438 438.457ZM395.672 435.868V431.401H394.294V429.292H395.734V426.224H398.323V429.292H400.745V431.401H398.323V435.534C398.323 437.288 399.701 437.538 400.431 437.538C400.724 437.538 400.912 437.497 400.912 437.497V439.814C400.912 439.814 400.598 439.876 400.097 439.876C398.615 439.876 395.672 439.438 395.672 435.868ZM406.136 438.457L407.347 436.599C407.347 436.599 408.516 437.768 410.248 437.768C411 437.768 411.647 437.434 411.647 436.808C411.647 435.221 406.47 435.43 406.47 432.006C406.47 430.023 408.244 428.875 410.541 428.875C412.941 428.875 414.11 430.086 414.11 430.086L413.129 432.048C413.129 432.048 412.148 431.13 410.52 431.13C409.831 431.13 409.163 431.422 409.163 432.09C409.163 433.593 414.34 433.405 414.34 436.829C414.34 438.603 412.795 440.022 410.269 440.022C407.618 440.022 406.136 438.457 406.136 438.457ZM416.369 435.868V431.401H414.992V429.292H416.432V426.224H419.021V429.292H421.442V431.401H419.021V435.534C419.021 437.288 420.398 437.538 421.129 437.538C421.421 437.538 421.609 437.497 421.609 437.497V439.814C421.609 439.814 421.296 439.876 420.795 439.876C419.313 439.876 416.369 439.438 416.369 435.868ZM422.319 436.703C422.319 433.321 426.891 433.092 428.624 433.092H428.979V432.946C428.979 431.547 428.102 431.067 426.933 431.067C425.409 431.067 424.01 432.09 424.01 432.09L423.008 430.19C423.008 430.19 424.657 428.875 427.183 428.875C429.981 428.875 431.609 430.42 431.609 433.113V439.772H429.167V438.895C429.167 438.478 429.208 438.144 429.208 438.144H429.167C429.187 438.144 428.352 440.022 425.931 440.022C424.031 440.022 422.319 438.833 422.319 436.703ZM424.991 436.578C424.991 437.288 425.513 437.956 426.599 437.956C427.997 437.956 429 436.453 429 435.158V434.908H428.54C427.183 434.908 424.991 435.096 424.991 436.578ZM433.806 439.772V429.125H436.353V430.963C436.353 431.359 436.311 431.714 436.311 431.714H436.353C436.833 430.19 438.106 428.979 439.735 428.979C439.985 428.979 440.215 429.021 440.215 429.021V431.631C440.215 431.631 439.943 431.589 439.589 431.589C438.461 431.589 437.188 432.236 436.687 433.822C436.52 434.344 436.457 434.929 436.457 435.555V439.772H433.806ZM441.898 435.868V431.401H440.521V429.292H441.961V426.224H444.55V429.292H446.971V431.401H444.55V435.534C444.55 437.288 445.927 437.538 446.658 437.538C446.95 437.538 447.138 437.497 447.138 437.497V439.814C447.138 439.814 446.825 439.876 446.324 439.876C444.842 439.876 441.898 439.438 441.898 435.868ZM447.995 434.449C447.995 431.171 450.228 428.875 453.401 428.875C456.47 428.875 458.119 431.109 458.119 433.927C458.119 434.24 458.057 434.95 458.057 434.95H450.708C450.875 436.808 452.316 437.768 453.902 437.768C455.614 437.768 456.971 436.599 456.971 436.599L457.994 438.499C457.994 438.499 456.366 440.022 453.714 440.022C450.186 440.022 447.995 437.476 447.995 434.449ZM450.792 433.134H455.447C455.405 431.693 454.508 430.921 453.339 430.921C451.982 430.921 451.042 431.756 450.792 433.134ZM459.012 434.449C459.012 431.067 461.016 428.875 463.834 428.875C466.173 428.875 466.903 430.232 466.903 430.232H466.945C466.945 430.232 466.924 429.961 466.924 429.627V424.95H469.575V439.772H467.07V438.895C467.07 438.499 467.112 438.206 467.112 438.206H467.07C467.07 438.206 466.173 440.022 463.73 440.022C460.849 440.022 459.012 437.747 459.012 434.449ZM461.684 434.449C461.684 436.474 462.77 437.789 464.335 437.789C465.713 437.789 467.008 436.787 467.008 434.428C467.008 432.779 466.131 431.15 464.356 431.15C462.895 431.15 461.684 432.34 461.684 434.449Z" fill="black"/>
<path d="M292.356 460.735V451.368H288.659V450.462H297.047V451.368H293.364V460.735H292.356ZM297.783 460.735V450.462H298.777V454.437C298.777 454.773 298.748 455.036 298.748 455.036H298.777C299.055 454.335 300.034 453.21 301.7 453.21C303.512 453.21 304.155 454.247 304.155 456.059V460.735H303.161V456.322C303.161 455.168 302.986 454.145 301.568 454.145C300.311 454.145 299.23 455.007 298.894 456.234C298.806 456.527 298.777 456.863 298.777 457.213V460.735H297.783ZM305.854 451.704V450.462H306.892V451.704H305.854ZM305.883 460.735V453.385H306.877V460.735H305.883ZM308.118 459.844L308.659 459.128C308.659 459.128 309.477 460.019 310.851 460.019C311.64 460.019 312.327 459.625 312.327 458.85C312.327 457.243 308.367 457.637 308.367 455.241C308.367 453.926 309.551 453.21 310.88 453.21C312.429 453.21 313.145 454.013 313.145 454.013L312.692 454.773C312.692 454.773 312.064 454.101 310.851 454.101C310.106 454.101 309.39 454.422 309.39 455.241C309.39 456.863 313.35 456.424 313.35 458.85C313.35 460.048 312.312 460.91 310.836 460.91C309.054 460.91 308.118 459.844 308.118 459.844ZM317.996 460.735V450.462H318.99V454.028C318.99 454.364 318.961 454.627 318.961 454.627H318.99C318.99 454.627 319.604 453.21 321.489 453.21C323.462 453.21 324.689 454.788 324.689 457.067C324.689 459.391 323.301 460.91 321.372 460.91C319.618 460.91 318.961 459.478 318.961 459.478H318.932C318.932 459.478 318.961 459.727 318.961 460.078V460.735H317.996ZM318.961 457.082C318.961 458.558 319.721 460.034 321.299 460.034C322.599 460.034 323.666 458.938 323.666 457.067C323.666 455.27 322.716 454.116 321.343 454.116C320.115 454.116 318.961 454.992 318.961 457.082ZM325.499 457.023C325.499 454.846 327.237 453.21 329.386 453.21C331.534 453.21 333.273 454.846 333.273 457.023C333.273 459.245 331.534 460.91 329.386 460.91C327.237 460.91 325.499 459.245 325.499 457.023ZM326.521 457.023C326.521 458.733 327.807 460.019 329.386 460.019C330.964 460.019 332.25 458.733 332.25 457.023C332.25 455.358 330.964 454.116 329.386 454.116C327.807 454.116 326.521 455.358 326.521 457.023ZM334.845 458.061V454.305H333.88V453.473H334.859V451.354H335.839V453.473H337.68V454.305H335.839V457.959C335.839 459.683 336.934 459.902 337.49 459.902C337.694 459.902 337.826 459.873 337.826 459.873V460.764C337.826 460.764 337.665 460.794 337.402 460.794C336.555 460.794 334.845 460.516 334.845 458.061ZM342.247 451.704V450.462H343.27V451.704H342.247ZM342.262 453.385H343.256V461.013C343.256 463.453 341.517 463.745 340.698 463.745C340.435 463.745 340.26 463.702 340.26 463.702V462.839C340.26 462.839 340.392 462.854 340.581 462.854C341.151 462.854 342.262 462.649 342.262 460.969V453.385ZM344.994 458.061V453.385H345.988V457.798C345.988 458.952 346.163 459.975 347.58 459.975C349.261 459.975 350.298 458.499 350.298 456.907V453.385H351.292V460.735H350.328V459.639C350.328 459.318 350.357 459.055 350.357 459.055H350.328C350.035 459.771 349.071 460.91 347.449 460.91C345.725 460.91 344.994 459.975 344.994 458.061ZM352.526 459.844L353.066 459.128C353.066 459.128 353.885 460.019 355.258 460.019C356.047 460.019 356.734 459.625 356.734 458.85C356.734 457.243 352.774 457.637 352.774 455.241C352.774 453.926 353.958 453.21 355.287 453.21C356.836 453.21 357.552 454.013 357.552 454.013L357.099 454.773C357.099 454.773 356.471 454.101 355.258 454.101C354.513 454.101 353.797 454.422 353.797 455.241C353.797 456.863 357.757 456.424 357.757 458.85C357.757 460.048 356.719 460.91 355.244 460.91C353.461 460.91 352.526 459.844 352.526 459.844ZM359.319 458.061V454.305H358.354V453.473H359.334V451.354H360.313V453.473H362.154V454.305H360.313V457.959C360.313 459.683 361.409 459.902 361.964 459.902C362.168 459.902 362.3 459.873 362.3 459.873V460.764C362.3 460.764 362.139 460.794 361.876 460.794C361.029 460.794 359.319 460.516 359.319 458.061ZM366.137 459.844L366.678 459.128C366.678 459.128 367.496 460.019 368.87 460.019C369.659 460.019 370.345 459.625 370.345 458.85C370.345 457.243 366.385 457.637 366.385 455.241C366.385 453.926 367.569 453.21 368.899 453.21C370.448 453.21 371.164 454.013 371.164 454.013L370.711 454.773C370.711 454.773 370.082 454.101 368.87 454.101C368.124 454.101 367.408 454.422 367.408 455.241C367.408 456.863 371.368 456.424 371.368 458.85C371.368 460.048 370.331 460.91 368.855 460.91C367.072 460.91 366.137 459.844 366.137 459.844ZM372.93 458.061V454.305H371.966V453.473H372.945V451.354H373.924V453.473H375.765V454.305H373.924V457.959C373.924 459.683 375.02 459.902 375.575 459.902C375.78 459.902 375.911 459.873 375.911 459.873V460.764C375.911 460.764 375.751 460.794 375.488 460.794C374.64 460.794 372.93 460.516 372.93 458.061ZM376.386 458.733C376.386 456.249 379.615 456.191 380.887 456.191H381.296V456.001C381.296 454.583 380.521 454.101 379.469 454.101C378.256 454.101 377.394 454.802 377.394 454.802L376.927 454.042C376.927 454.042 377.891 453.21 379.542 453.21C381.311 453.21 382.29 454.189 382.29 456.03V460.735H381.34V459.931C381.34 459.566 381.369 459.318 381.369 459.318H381.34C381.34 459.318 380.726 460.91 378.885 460.91C377.657 460.91 376.386 460.194 376.386 458.733ZM377.409 458.675C377.409 459.362 377.95 460.063 379.046 460.063C380.448 460.063 381.296 458.602 381.296 457.33V457.009H380.872C379.718 457.009 377.409 457.053 377.409 458.675ZM384.015 460.735V453.385H384.994V454.685C384.994 455.007 384.965 455.27 384.965 455.27H384.994C385.345 454.159 386.163 453.312 387.317 453.312C387.522 453.312 387.712 453.356 387.712 453.356V454.335C387.712 454.335 387.537 454.305 387.347 454.305C386.309 454.305 385.535 455.124 385.213 456.205C385.067 456.673 385.009 457.17 385.009 457.637V460.735H384.015ZM388.939 458.061V454.305H387.975V453.473H388.954V451.354H389.933V453.473H391.774V454.305H389.933V457.959C389.933 459.683 391.029 459.902 391.584 459.902C391.788 459.902 391.92 459.873 391.92 459.873V460.764C391.92 460.764 391.759 460.794 391.496 460.794C390.649 460.794 388.939 460.516 388.939 458.061ZM392.482 457.067C392.482 454.656 394.119 453.21 396.106 453.21C398.138 453.21 399.175 454.773 399.175 456.6C399.175 456.775 399.146 457.111 399.146 457.111H393.505C393.549 458.996 394.835 460.019 396.355 460.019C397.699 460.019 398.591 459.128 398.591 459.128L399.044 459.888C399.044 459.888 397.977 460.91 396.326 460.91C394.134 460.91 392.482 459.332 392.482 457.067ZM393.549 456.293H398.167C398.108 454.758 397.173 454.042 396.077 454.042C394.85 454.042 393.783 454.817 393.549 456.293ZM400.027 457.053C400.027 454.729 401.4 453.21 403.329 453.21C405.112 453.21 405.726 454.598 405.726 454.598H405.755C405.755 454.598 405.726 454.349 405.726 454.042V450.462H406.719V460.735H405.755V459.961C405.755 459.639 405.784 459.435 405.784 459.435H405.755C405.755 459.435 405.156 460.91 403.227 460.91C401.254 460.91 400.027 459.332 400.027 457.053ZM401.049 457.053C401.049 458.865 401.999 460.019 403.373 460.019C404.6 460.019 405.755 459.142 405.755 457.053C405.755 455.562 404.995 454.101 403.417 454.101C402.116 454.101 401.049 455.197 401.049 457.053ZM411.315 458.733C411.315 456.249 414.544 456.191 415.815 456.191H416.225V456.001C416.225 454.583 415.45 454.101 414.398 454.101C413.185 454.101 412.323 454.802 412.323 454.802L411.855 454.042C411.855 454.042 412.82 453.21 414.471 453.21C416.239 453.21 417.218 454.189 417.218 456.03V460.735H416.268V459.931C416.268 459.566 416.298 459.318 416.298 459.318H416.268C416.268 459.318 415.655 460.91 413.813 460.91C412.586 460.91 411.315 460.194 411.315 458.733ZM412.338 458.675C412.338 459.362 412.878 460.063 413.974 460.063C415.377 460.063 416.225 458.602 416.225 457.33V457.009H415.801C414.646 457.009 412.338 457.053 412.338 458.675ZM422.642 460.735V454.305H421.721V453.473H422.642V453.122C422.642 450.696 424.351 450.389 425.184 450.389C425.462 450.389 425.637 450.418 425.637 450.418V451.31C425.637 451.31 425.491 451.281 425.287 451.281C424.717 451.281 423.635 451.485 423.635 453.122V453.473H425.52V454.305H423.635V460.735H422.642ZM425.856 457.067C425.856 454.656 427.492 453.21 429.48 453.21C431.511 453.21 432.548 454.773 432.548 456.6C432.548 456.775 432.519 457.111 432.519 457.111H426.879C426.922 458.996 428.208 460.019 429.728 460.019C431.072 460.019 431.964 459.128 431.964 459.128L432.417 459.888C432.417 459.888 431.35 460.91 429.699 460.91C427.507 460.91 425.856 459.332 425.856 457.067ZM426.922 456.293H431.54C431.482 454.758 430.546 454.042 429.45 454.042C428.223 454.042 427.156 454.817 426.922 456.293ZM435.416 460.735L432.932 453.385H433.984L435.767 458.865C435.884 459.215 435.986 459.654 435.986 459.654H436.015C436.015 459.654 436.118 459.215 436.235 458.865L438.047 453.414H439.026L440.838 458.865C440.955 459.215 441.057 459.654 441.057 459.654H441.086C441.086 459.654 441.188 459.23 441.305 458.865L443.088 453.385H444.14L441.656 460.735H440.575L438.777 455.504C438.646 455.138 438.543 454.715 438.543 454.715H438.514C438.514 454.715 438.412 455.138 438.295 455.504L436.498 460.735H435.416ZM448.384 460.735V453.385H449.363V454.481C449.363 454.802 449.333 455.065 449.333 455.065H449.363C449.713 454.072 450.882 453.21 452.022 453.21C453.381 453.21 454.083 453.838 454.302 455.051H454.331C454.726 454.057 455.792 453.21 457.034 453.21C458.817 453.21 459.475 454.247 459.475 456.059V460.735H458.481V456.307C458.481 455.109 458.233 454.116 456.888 454.116C455.763 454.116 454.842 455.109 454.565 456.191C454.463 456.512 454.433 456.863 454.433 457.257V460.735H453.44V456.307C453.44 455.197 453.279 454.116 451.891 454.116C450.692 454.116 449.786 455.153 449.48 456.278C449.406 456.585 449.377 456.921 449.377 457.257V460.735H448.384ZM461.178 451.704V450.462H462.215V451.704H461.178ZM461.207 460.735V453.385H462.201V460.735H461.207ZM464.041 460.735V453.385H465.02V454.481C465.02 454.802 464.991 455.065 464.991 455.065H465.02C465.283 454.393 466.219 453.21 467.957 453.21C469.769 453.21 470.412 454.247 470.412 456.059V460.735H469.419V456.322C469.419 455.168 469.243 454.145 467.826 454.145C466.569 454.145 465.488 455.007 465.152 456.22C465.064 456.527 465.035 456.863 465.035 457.213V460.735H464.041ZM471.542 459.844L472.083 459.128C472.083 459.128 472.901 460.019 474.275 460.019C475.064 460.019 475.75 459.625 475.75 458.85C475.75 457.243 471.79 457.637 471.79 455.241C471.79 453.926 472.974 453.21 474.304 453.21C475.853 453.21 476.569 454.013 476.569 454.013L476.116 454.773C476.116 454.773 475.487 454.101 474.275 454.101C473.529 454.101 472.813 454.422 472.813 455.241C472.813 456.863 476.773 456.424 476.773 458.85C476.773 460.048 475.736 460.91 474.26 460.91C472.477 460.91 471.542 459.844 471.542 459.844ZM480.821 458.733C480.821 456.249 484.05 456.191 485.321 456.191H485.731V456.001C485.731 454.583 484.956 454.101 483.904 454.101C482.691 454.101 481.829 454.802 481.829 454.802L481.361 454.042C481.361 454.042 482.326 453.21 483.977 453.21C485.745 453.21 486.724 454.189 486.724 456.03V460.735H485.774V459.931C485.774 459.566 485.804 459.318 485.804 459.318H485.774C485.774 459.318 485.161 460.91 483.32 460.91C482.092 460.91 480.821 460.194 480.821 458.733ZM481.844 458.675C481.844 459.362 482.384 460.063 483.48 460.063C484.883 460.063 485.731 458.602 485.731 457.33V457.009H485.307C484.152 457.009 481.844 457.053 481.844 458.675ZM489.005 462.401C489.005 462.401 489.911 462.912 490.992 462.912C492.424 462.912 493.564 462.24 493.564 460.604V459.931C493.564 459.654 493.593 459.405 493.593 459.405H493.564C493.126 460.224 492.38 460.691 491.241 460.691C489.268 460.691 487.967 459.128 487.967 456.921C487.967 454.715 489.18 453.21 491.153 453.21C493.096 453.21 493.579 454.437 493.579 454.437H493.608C493.608 454.437 493.593 454.349 493.593 454.189V453.385H494.558V460.56C494.558 462.898 492.833 463.804 491.036 463.804C490.188 463.804 489.341 463.585 488.625 463.219L489.005 462.401ZM491.401 459.8C492.556 459.8 493.579 459.084 493.579 456.921C493.579 454.773 492.556 454.116 491.255 454.116C489.823 454.116 488.99 455.153 488.99 456.907C488.99 458.66 489.94 459.8 491.401 459.8ZM495.852 457.023C495.852 454.846 497.591 453.21 499.739 453.21C501.887 453.21 503.626 454.846 503.626 457.023C503.626 459.245 501.887 460.91 499.739 460.91C497.591 460.91 495.852 459.245 495.852 457.023ZM496.875 457.023C496.875 458.733 498.161 460.019 499.739 460.019C501.317 460.019 502.603 458.733 502.603 457.023C502.603 455.358 501.317 454.116 499.739 454.116C498.161 454.116 496.875 455.358 496.875 457.023Z" fill="#4F5153"/>
</g>
<defs>
<filter id="filter0_d_957_6507" x="171.655" y="181.617" width="459.26" height="328.788" filterUnits="userSpaceOnUse" color-interpolation-filters="sRGB">
<feFlood flood-opacity="0" result="BackgroundImageFix"/>
<feColorMatrix in="SourceAlpha" type="matrix" values="0 0 0 0 0 0 0 0 0 0 0 0 0 0 0 0 0 0 127 0" result="hardAlpha"/>
<feOffset dy="8.35018"/>
<feGaussianBlur stdDeviation="4.17509"/>
<feComposite in2="hardAlpha" operator="out"/>
<feColorMatrix type="matrix" values="0 0 0 0 0 0 0 0 0 0 0 0 0 0 0 0 0 0 0.03 0"/>
<feBlend mode="normal" in2="BackgroundImageFix" result="effect1_dropShadow_957_6507"/>
<feBlend mode="normal" in="SourceGraphic" in2="effect1_dropShadow_957_6507" result="shape"/>
</filter>
<linearGradient id="paint0_linear_957_6507" x1="324.168" y1="147.271" x2="683.44" y2="600.061" gradientUnits="userSpaceOnUse">
<stop stop-color="#FFD667" stop-opacity="0.5"/>
<stop offset="0.52" stop-color="#F09A73" stop-opacity="0.5"/>
<stop offset="1" stop-color="#FF5A10" stop-opacity="0.7"/>
</linearGradient>
</defs>
</svg>
