<svg width="21" height="12" viewBox="0 0 21 12" fill="none" xmlns="http://www.w3.org/2000/svg">
<path d="M15.2509 11.6995C15.1381 11.5553 15.079 11.3718 15.0737 11.1489C15.0687 10.9261 15.1227 10.7426 15.2355 10.5984L18.251 6.74442H0.615404C0.44104 6.74442 0.294779 6.66892 0.176621 6.5179C0.0588738 6.36742 0 6.18075 0 5.9579C0 5.73505 0.0588738 5.54812 0.176621 5.39711C0.294779 5.24662 0.44104 5.17138 0.615404 5.17138H18.251L15.2355 1.31742C15.1227 1.17323 15.0687 0.989706 15.0737 0.766859C15.079 0.544011 15.1381 0.360489 15.2509 0.216293C15.3637 0.0720975 15.5073 0 15.6817 0C15.8561 0 15.9996 0.0720975 16.1125 0.216293L20.1741 5.40734C20.2357 5.47288 20.2794 5.55468 20.3052 5.65273C20.3307 5.75131 20.3434 5.85303 20.3434 5.9579C20.3434 6.06277 20.3307 6.16109 20.3052 6.25285C20.2794 6.34461 20.2357 6.42981 20.1741 6.50847L16.1125 11.6995C15.9996 11.8437 15.8561 11.9158 15.6817 11.9158C15.5073 11.9158 15.3637 11.8437 15.2509 11.6995Z" fill="black"/>
</svg>
