<svg width="14" height="15" viewBox="0 0 14 15" fill="none" xmlns="http://www.w3.org/2000/svg">
<path d="M12.1071 6.5625H11.4107V4.45313C11.4107 1.99805 9.4317 0 7 0C4.5683 0 2.58929 1.99805 2.58929 4.45313V6.5625H1.89286C1.12388 6.5625 0.5 7.19238 0.5 7.96875V13.5937C0.5 14.3701 1.12388 15 1.89286 15H12.1071C12.8761 15 13.5 14.3701 13.5 13.5937V7.96875C13.5 7.19238 12.8761 6.5625 12.1071 6.5625ZM9.08929 6.5625H4.91071V4.45313C4.91071 3.29004 5.84799 2.34375 7 2.34375C8.15201 2.34375 9.08929 3.29004 9.08929 4.45313V6.5625Z" fill="black"/>
</svg>
