<svg width="234" height="234" viewBox="0 0 234 234" fill="none" xmlns="http://www.w3.org/2000/svg">
<rect x="74.9707" y="117" width="59.4382" height="59.4382" rx="2.27184" transform="rotate(-45 74.9707 117)" fill="#FBFBFC"/>
<rect x="86.7568" y="146.18" width="59.4382" height="59.4382" rx="2.27184" transform="rotate(-88.9708 86.7568 146.18)" fill="#FBFBFC"/>
<path d="M122.213 20.4466L136.311 20.4465V0H97.6895V20.4465L122.213 20.4466Z" fill="#FBFBFC"/>
<path d="M136.311 6.81592H152.213V24.9907H136.311V6.81592Z" fill="#FBFBFC"/>
<path d="M81.7822 6.81592H97.6851V24.9907H81.7822V6.81592Z" fill="#FBFBFC"/>
<path d="M86.3339 46.5775V24.9902H68.1592V68.1553H86.3339V46.5775Z" fill="#FBFBFC"/>
<path d="M165.85 46.5775V24.9902H147.675V68.1552H165.85V46.5775Z" fill="#FBFBFC"/>
<path d="M20.4466 111.786L20.4465 97.6884H0L0 136.31H20.4465L20.4466 111.786Z" fill="#FBFBFC"/>
<path d="M6.81152 97.6904L6.81152 81.7875H24.9863V97.6904H6.81152Z" fill="#FBFBFC"/>
<path d="M6.81152 152.213L6.81152 136.31H24.9863V152.213H6.81152Z" fill="#FBFBFC"/>
<path d="M46.5814 147.67H24.9941V165.845H68.1592V147.67H46.5814Z" fill="#FBFBFC"/>
<path d="M46.5814 68.1558H24.9941V86.3306H68.1591V68.1558H46.5814Z" fill="#FBFBFC"/>
<path d="M122.213 213.553L136.311 213.553V234H97.6895V213.553L122.213 213.553Z" fill="#FBFBFC"/>
<path d="M136.311 227.184H152.213V209.009H136.311V227.184Z" fill="#FBFBFC"/>
<path d="M81.7822 227.184H97.6851V209.009H81.7822V227.184Z" fill="#FBFBFC"/>
<path d="M86.3339 187.422V209.01H68.1592V165.845H86.3339V187.422Z" fill="#FBFBFC"/>
<path d="M165.85 187.423V209.01H147.675V165.845H165.85V187.423Z" fill="#FBFBFC"/>
<path d="M213.553 111.786L213.553 97.6884H234V136.31H213.553L213.553 111.786Z" fill="#FBFBFC"/>
<path d="M227.188 97.6904V81.7875H209.014V97.6904H227.188Z" fill="#FBFBFC"/>
<path d="M227.188 152.213V136.31H209.014V152.213H227.188Z" fill="#FBFBFC"/>
<path d="M187.419 147.67H209.006V165.845H165.841V147.67H187.419Z" fill="#FBFBFC"/>
<path d="M187.419 68.1558H209.006V86.3306H165.841V68.1558H187.419Z" fill="#FBFBFC"/>
</svg>
