<svg width="168" height="40" viewBox="0 0 168 40" fill="none" xmlns="http://www.w3.org/2000/svg">
<path d="M41.5526 28.3167C39.6702 28.3167 38.1133 27.9384 36.8819 27.182C35.6504 26.4079 34.7356 25.3524 34.1375 24.0153C33.5393 22.6783 33.2403 21.1566 33.2403 19.4501C33.2403 17.4798 33.6097 15.8173 34.3486 14.4627C35.105 13.1081 36.143 12.0878 37.4624 11.4017C38.7994 10.698 40.3388 10.3461 42.0804 10.3461C43.0128 10.3461 43.7517 10.4253 44.297 10.5836C44.8424 10.7244 45.2734 10.8739 45.5901 11.0322C45.9067 11.173 46.1882 11.2433 46.4345 11.2433C46.6984 11.2433 46.8831 11.1466 46.9886 10.9531C47.0942 10.7595 47.1998 10.5572 47.3053 10.3461H48.3081V16.6794H47.1734C46.8391 14.9905 46.241 13.7326 45.379 12.9058C44.5169 12.079 43.4086 11.6655 42.054 11.6655C40.3475 11.6655 39.0545 12.2989 38.1749 13.5655C37.2953 14.8146 36.8555 16.6002 36.8555 18.9224C36.8555 20.6112 37.0754 21.9834 37.5152 23.039C37.9726 24.0945 38.6323 24.8686 39.4943 25.3612C40.3739 25.8361 41.4295 26.0736 42.6609 26.0736C43.9276 26.0736 44.9831 25.8537 45.8276 25.4139C46.6896 24.9565 47.4988 24.3056 48.2553 23.4612L49.0206 24.1473C48.4752 24.9213 47.8771 25.625 47.2261 26.2584C46.5752 26.8917 45.7924 27.3931 44.8776 27.7625C43.9804 28.1319 42.872 28.3167 41.5526 28.3167ZM56.4545 28.2639C54.4665 28.2639 52.936 27.7185 51.8629 26.6278C50.7898 25.5371 50.2532 23.8746 50.2532 21.6404C50.2532 20.3913 50.4819 19.283 50.9393 18.3154C51.4143 17.3479 52.118 16.5914 53.0504 16.046C53.9828 15.4831 55.1351 15.2016 56.5073 15.2016C58.5128 15.2016 60.0345 15.7646 61.0725 16.8905C62.128 17.9988 62.6558 19.5117 62.6558 21.4293C62.6558 22.907 62.4007 24.1561 61.8905 25.1764C61.3979 26.1968 60.6942 26.9708 59.7794 27.4986C58.8646 28.0088 57.7563 28.2639 56.4545 28.2639ZM56.5336 27.05C57.167 27.05 57.6771 26.8653 58.0642 26.4959C58.4688 26.1264 58.7591 25.5459 58.935 24.7542C59.1285 23.945 59.2253 22.8982 59.2253 21.614C59.2253 19.9603 58.9878 18.6761 58.5128 17.7613C58.0554 16.8289 57.3253 16.3627 56.3225 16.3627C55.4253 16.3627 54.7568 16.8025 54.317 17.6821C53.8948 18.5441 53.6837 19.7668 53.6837 21.3501C53.6837 23.3204 53.9212 24.7718 54.3962 25.7042C54.8712 26.619 55.5837 27.0676 56.5336 27.05ZM78.836 28H71.9486V27.05C72.5292 27.05 72.9426 26.9972 73.1889 26.8917C73.4528 26.7685 73.6111 26.575 73.6639 26.3111C73.7342 26.0297 73.7694 25.6426 73.7694 25.15V20.796C73.7694 19.8812 73.6727 19.1775 73.4792 18.6849C73.3032 18.1923 73.0481 17.858 72.7139 17.6821C72.3796 17.5062 71.9838 17.4182 71.5264 17.4182C71.0866 17.4182 70.6908 17.4974 70.3389 17.6557C69.9871 17.8141 69.6616 18.0076 69.3626 18.2363C69.0811 18.465 68.7908 18.7025 68.4917 18.9488L68.3334 17.4446H68.7556C69.4593 16.7761 70.119 16.2395 70.7348 15.8349C71.3681 15.4127 72.0894 15.2016 72.8986 15.2016C74.218 15.2016 75.2208 15.6238 75.9069 16.4682C76.6106 17.2951 76.9624 18.5353 76.9624 20.189V25.15C76.9624 25.625 77.0064 26.0033 77.0944 26.2847C77.1823 26.5662 77.3583 26.7685 77.6221 26.8917C77.9036 26.9972 78.3082 27.05 78.836 27.05V28ZM70.6556 28H63.7154V27.05C64.296 27.05 64.7094 26.9972 64.9557 26.8917C65.2196 26.7685 65.3779 26.5662 65.4307 26.2847C65.501 26.0033 65.5362 25.625 65.5362 25.15V18.1307C65.5362 17.6557 65.4395 17.3479 65.246 17.2071C65.07 17.0488 64.8061 16.9696 64.4543 16.9696C64.2256 16.9696 64.0497 16.9784 63.9265 16.996C63.8034 17.0136 63.7418 17.0224 63.7418 17.0224V16.046L67.5418 15.2808H68.6765L68.6501 17.7877L68.7292 18.421V25.15C68.7292 25.625 68.7644 26.0033 68.8348 26.2847C68.9052 26.5662 69.0723 26.7685 69.3362 26.8917C69.6176 26.9972 70.0575 27.05 70.6556 27.05V28ZM87.6001 25.2556L88.207 25.8889C87.8728 26.3639 87.5297 26.7861 87.1779 27.1556C86.826 27.525 86.4038 27.8153 85.9112 28.0264C85.4186 28.2375 84.7765 28.343 83.9849 28.343C83.0173 28.343 82.296 28.0704 81.821 27.525C81.346 26.9621 81.1085 25.9857 81.1085 24.5959V17.0752H79.5252V16.1516C80.2113 15.7118 80.8446 15.1576 81.4252 14.4891C82.0057 13.8206 82.5511 12.9322 83.0613 11.8239H84.3015V15.6502H87.4681V17.0752H84.3015V23.7515C84.3015 24.7014 84.3895 25.3524 84.5654 25.7042C84.7589 26.0385 85.102 26.2056 85.5946 26.2056C86.0695 26.2056 86.439 26.1264 86.7029 25.9681C86.9843 25.7922 87.2834 25.5547 87.6001 25.2556ZM95.4486 28H88.3237V27.05C88.9218 27.05 89.3528 27.006 89.6167 26.9181C89.8806 26.8125 90.0565 26.619 90.1445 26.3375C90.2325 26.0561 90.2764 25.669 90.2764 25.1764V18.2099C90.2764 17.6293 90.1621 17.2775 89.9334 17.1543C89.7047 17.0136 89.3968 16.9432 89.0098 16.9432C88.8339 16.9432 88.6755 16.952 88.5348 16.9696C88.3941 16.9872 88.3237 16.996 88.3237 16.996V16.0196L92.0445 15.2808H93.4694V25.1237C93.4694 25.6338 93.5134 26.0297 93.6014 26.3111C93.6893 26.5926 93.8741 26.7861 94.1555 26.8917C94.437 26.9972 94.868 27.05 95.4486 27.05V28ZM91.8334 13.46C91.2528 13.46 90.7866 13.2928 90.4348 12.9586C90.1005 12.6067 89.9334 12.1581 89.9334 11.6128C89.9334 11.085 90.1005 10.6452 90.4348 10.2933C90.769 9.9415 91.2352 9.76557 91.8334 9.76557C92.4491 9.76557 92.9153 9.9415 93.2319 10.2933C93.5662 10.6276 93.7333 11.0674 93.7333 11.6128C93.7333 12.1581 93.5662 12.6067 93.2319 12.9586C92.9153 13.2928 92.4491 13.46 91.8334 13.46ZM111.321 28H104.433V27.05C105.014 27.05 105.427 26.9972 105.673 26.8917C105.937 26.7685 106.096 26.575 106.148 26.3111C106.219 26.0297 106.254 25.6426 106.254 25.15V20.796C106.254 19.8812 106.157 19.1775 105.964 18.6849C105.788 18.1923 105.533 17.858 105.198 17.6821C104.864 17.5062 104.468 17.4182 104.011 17.4182C103.571 17.4182 103.175 17.4974 102.824 17.6557C102.472 17.8141 102.146 18.0076 101.847 18.2363C101.566 18.465 101.275 18.7025 100.976 18.9488L100.818 17.4446H101.24C101.944 16.7761 102.604 16.2395 103.219 15.8349C103.853 15.4127 104.574 15.2016 105.383 15.2016C106.703 15.2016 107.705 15.6238 108.392 16.4682C109.095 17.2951 109.447 18.5353 109.447 20.189V25.15C109.447 25.625 109.491 26.0033 109.579 26.2847C109.667 26.5662 109.843 26.7685 110.107 26.8917C110.388 26.9972 110.793 27.05 111.321 27.05V28ZM103.14 28H96.2V27.05C96.7806 27.05 97.194 26.9972 97.4403 26.8917C97.7042 26.7685 97.8625 26.5662 97.9153 26.2847C97.9857 26.0033 98.0208 25.625 98.0208 25.15V18.1307C98.0208 17.6557 97.9241 17.3479 97.7306 17.2071C97.5546 17.0488 97.2908 16.9696 96.9389 16.9696C96.7102 16.9696 96.5343 16.9784 96.4111 16.996C96.288 17.0136 96.2264 17.0224 96.2264 17.0224V16.046L100.026 15.2808H101.161L101.135 17.7877L101.214 18.421V25.15C101.214 25.625 101.249 26.0033 101.319 26.2847C101.39 26.5662 101.557 26.7685 101.821 26.8917C102.102 26.9972 102.542 27.05 103.14 27.05V28ZM127.622 24.425C127.172 25.525 126.564 26.4417 125.797 27.175C125.031 27.8917 124.189 28.25 123.272 28.25C122.739 28.25 122.281 28.0833 121.897 27.75C121.531 27.4167 121.347 26.9417 121.347 26.325C121.347 26.1083 121.372 25.875 121.422 25.625L121.597 24.8C120.914 25.7833 120.106 26.6083 119.172 27.275C118.256 27.925 117.281 28.25 116.247 28.25C115.147 28.25 114.306 28.0167 113.722 27.55C113.139 27.0833 112.847 26.3667 112.847 25.4C112.847 24.9667 112.889 24.5667 112.972 24.2L114.522 16.5C114.056 16.4167 113.539 16.2667 112.972 16.05L113.022 15.8L117.947 15.3L116.172 24.1C116.039 24.7333 115.972 25.225 115.972 25.575C115.972 26.125 116.089 26.525 116.322 26.775C116.572 27.025 116.939 27.15 117.422 27.15C117.989 27.15 118.672 26.7833 119.472 26.05C120.289 25.3 121.114 24.3083 121.947 23.075L123.447 15.55H126.622L124.597 25.475C124.547 25.725 124.522 25.9583 124.522 26.175C124.522 26.6083 124.647 26.825 124.897 26.825C125.181 26.825 125.539 26.5417 125.972 25.975C126.406 25.3917 126.756 24.775 127.022 24.125L127.622 24.425ZM143.162 24.425C142.712 25.525 142.104 26.4417 141.337 27.175C140.571 27.8917 139.729 28.25 138.812 28.25C138.279 28.25 137.821 28.0833 137.437 27.75C137.071 27.4167 136.887 26.9417 136.887 26.325C136.887 26.1083 136.912 25.875 136.962 25.625L137.137 24.8C136.454 25.7833 135.646 26.6083 134.712 27.275C133.796 27.925 132.821 28.25 131.787 28.25C130.687 28.25 129.846 28.0167 129.262 27.55C128.679 27.0833 128.387 26.3667 128.387 25.4C128.387 24.9667 128.429 24.5667 128.512 24.2L130.062 16.5C129.596 16.4167 129.079 16.2667 128.512 16.05L128.562 15.8L133.487 15.3L131.712 24.1C131.579 24.7333 131.512 25.225 131.512 25.575C131.512 26.125 131.629 26.525 131.862 26.775C132.112 27.025 132.479 27.15 132.962 27.15C133.529 27.15 134.212 26.7833 135.012 26.05C135.829 25.3 136.654 24.3083 137.487 23.075L138.987 15.55H142.162L140.137 25.475C140.087 25.725 140.062 25.9583 140.062 26.175C140.062 26.6083 140.187 26.825 140.437 26.825C140.721 26.825 141.079 26.5417 141.512 25.975C141.946 25.3917 142.296 24.775 142.562 24.125L143.162 24.425ZM159.026 28H152.112V27.05C152.675 27.05 153.08 26.9972 153.326 26.8917C153.59 26.7685 153.757 26.5574 153.827 26.2584C153.898 25.9593 153.933 25.5459 153.933 25.0181V20.4793C153.933 19.283 153.748 18.4738 153.379 18.0516C153.027 17.6293 152.543 17.4182 151.927 17.4182C151.523 17.4182 151.136 17.4974 150.766 17.6557C150.414 17.8141 150.08 18.0164 149.763 18.2627C149.447 18.4914 149.156 18.7464 148.893 19.0279L148.708 17.4446H149.156C149.79 16.8641 150.423 16.3451 151.056 15.8877C151.707 15.4303 152.49 15.2016 153.405 15.2016C154.425 15.2016 155.226 15.4743 155.806 16.0196C156.405 16.565 156.8 17.3039 156.994 18.2363C157.029 18.4298 157.055 18.6321 157.073 18.8432C157.108 19.0543 157.126 19.2654 157.126 19.4765V25.0181C157.126 25.5283 157.17 25.9329 157.258 26.232C157.346 26.531 157.522 26.7422 157.786 26.8653C158.049 26.9884 158.463 27.05 159.026 27.05V28ZM151.056 28H144.116V27.05C144.679 27.05 145.084 26.9972 145.33 26.8917C145.594 26.7861 145.761 26.5926 145.832 26.3111C145.902 26.0297 145.937 25.6426 145.937 25.15V18.1571C145.937 17.6645 145.849 17.3479 145.673 17.2071C145.497 17.0488 145.225 16.9696 144.855 16.9696C144.626 16.9696 144.451 16.9784 144.327 16.996C144.204 17.0136 144.143 17.0224 144.143 17.0224V16.046L147.916 15.2808H149.051V17.7877L149.13 18.4474V25.2028C149.13 25.6778 149.174 26.0561 149.262 26.3375C149.35 26.6014 149.526 26.7861 149.79 26.8917C150.071 26.9972 150.493 27.05 151.056 27.05V28ZM166.942 28H160.134V27.05C160.679 27.05 161.075 26.9884 161.322 26.8653C161.568 26.7246 161.726 26.5047 161.797 26.2056C161.867 25.9065 161.902 25.5107 161.902 25.0181V20.5321C161.902 19.7228 161.814 19.0895 161.638 18.6321C161.48 18.1747 161.242 17.858 160.926 17.6821C160.627 17.5062 160.266 17.4182 159.844 17.4182C159.281 17.4182 158.735 17.5854 158.208 17.9196C157.698 18.2363 157.24 18.5969 156.836 19.0015L156.492 17.5238H156.915C157.601 16.8377 158.296 16.2835 158.999 15.8613C159.703 15.4215 160.46 15.2016 161.269 15.2016C162.43 15.2016 163.353 15.5886 164.04 16.3627C164.743 17.1368 165.095 18.3682 165.095 20.0571V25.0181C165.095 25.5107 165.13 25.9153 165.201 26.232C165.289 26.531 165.465 26.7422 165.728 26.8653C165.992 26.9884 166.397 27.05 166.942 27.05V28Z" fill="white"/>
<rect x="8.33008" y="19.5" width="6.60424" height="6.60424" rx="0.252427" transform="rotate(-45 8.33008 19.5)" fill="white"/>
<rect x="9.63965" y="22.7422" width="6.60424" height="6.60424" rx="0.252427" transform="rotate(-88.9708 9.63965 22.7422)" fill="white"/>
<path d="M13.5793 8.77184L15.1457 8.77184V6.5H10.8545V8.77184L13.5793 8.77184Z" fill="white"/>
<path d="M15.1455 7.25732H16.9125V9.27674H15.1455V7.25732Z" fill="white"/>
<path d="M9.08691 7.25732H10.8539V9.27674H9.08691V7.25732Z" fill="white"/>
<path d="M9.59266 11.6752V9.27664H7.57324V14.0728H9.59266V11.6752Z" fill="white"/>
<path d="M18.4276 11.6752V9.27663H16.4082V14.0727H18.4276V11.6752Z" fill="white"/>
<path d="M2.27184 18.9207L2.27184 17.3543H0L0 21.6455H2.27184L2.27184 18.9207Z" fill="white"/>
<path d="M0.756836 17.3545L0.756836 15.5875H2.77625V17.3545H0.756836Z" fill="white"/>
<path d="M0.756836 23.4126L0.756836 21.6456H2.77625V23.4126H0.756836Z" fill="white"/>
<path d="M5.17572 22.9078H2.77713V24.9272H7.57324V22.9078H5.17572Z" fill="white"/>
<path d="M5.17571 14.0729H2.77712V16.0923H7.57323V14.0729H5.17571Z" fill="white"/>
<path d="M13.5793 30.2282L15.1457 30.2282V32.5H10.8545V30.2282L13.5793 30.2282Z" fill="white"/>
<path d="M15.1455 31.7427H16.9125V29.7233H15.1455V31.7427Z" fill="white"/>
<path d="M9.08691 31.7427H10.8539V29.7233H9.08691V31.7427Z" fill="white"/>
<path d="M9.59266 27.3248V29.7234H7.57324V24.9272H9.59266V27.3248Z" fill="white"/>
<path d="M18.4276 27.3248V29.7234H16.4082V24.9273H18.4276V27.3248Z" fill="white"/>
<path d="M23.7282 18.9207L23.7282 17.3543H26V21.6455H23.7282L23.7282 18.9207Z" fill="white"/>
<path d="M25.2432 17.3545V15.5875H23.2237V17.3545H25.2432Z" fill="white"/>
<path d="M25.2432 23.4126V21.6456H23.2237V23.4126H25.2432Z" fill="white"/>
<path d="M20.8243 22.9078H23.2229V24.9272H18.4268V22.9078H20.8243Z" fill="white"/>
<path d="M20.8243 14.0729H23.2229V16.0923H18.4268V14.0729H20.8243Z" fill="white"/>
</svg>
