<svg width="58" height="57" viewBox="0 0 58 57" fill="none" xmlns="http://www.w3.org/2000/svg">
<g style="mix-blend-mode:luminosity" clip-path="url(#clip0_115_93)">
<path d="M28.6647 56.4627C44.0827 56.4627 56.5814 43.964 56.5814 28.5461C56.5814 13.1281 44.0827 0.629395 28.6647 0.629395C13.2468 0.629395 0.748047 13.1281 0.748047 28.5461C0.748047 43.964 13.2468 56.4627 28.6647 56.4627Z" fill="#9C011B"/>
<path d="M29.2844 10.981C17.2351 10.981 10.8379 19.0693 10.8379 27.8749C10.8379 31.97 13.0175 37.067 16.505 38.6903C17.0332 38.9363 17.3167 38.83 17.438 38.3178C17.5314 37.9291 18.0017 36.0329 18.2132 35.1514C18.2809 34.8701 18.2476 34.6285 18.02 34.3515C16.8657 32.9514 15.9423 30.3787 15.9423 27.9801C15.9423 21.8223 20.6044 15.8642 28.5467 15.8642C35.4045 15.8642 40.2062 20.5381 40.2062 27.222C40.2062 34.7734 36.3924 40.0057 31.4307 40.0057C28.6906 40.0057 26.6387 37.7391 27.2969 34.9592C28.0861 31.6414 29.6097 28.0617 29.6097 25.6652C29.6097 23.522 28.4608 21.7332 26.0782 21.7332C23.2769 21.7332 21.0275 24.63 21.0275 28.5126C21.0275 30.9833 21.8628 32.6561 21.8628 32.6561C21.8628 32.6561 19.0958 44.3553 18.589 46.5328C18.0279 48.9368 18.2466 52.3138 18.4894 54.5217C19.1191 54.7686 19.749 55.0155 20.4 55.217C21.5402 53.3635 23.2405 50.3236 23.8707 47.8997C24.211 46.5929 25.6111 41.263 25.6111 41.263C26.5206 42.9992 29.1791 44.4691 32.0084 44.4691C40.4274 44.4691 46.4949 36.7265 46.4949 27.1049C46.4949 17.8806 38.9693 10.981 29.2844 10.981Z" fill="white"/>
</g>
<defs>
<clipPath id="clip0_115_93">
<rect width="57" height="56" fill="white" transform="translate(0.131836 0.629395)"/>
</clipPath>
</defs>
</svg>
