<svg width="20" height="21" viewBox="0 0 20 21" fill="none" xmlns="http://www.w3.org/2000/svg">
<path d="M19.3346 10.1856V10.8522C19.3346 11.2204 19.0362 11.5189 18.668 11.5189H11.0013V19.1856C11.0013 19.5537 10.7028 19.8522 10.3346 19.8522H9.668C9.2998 19.8522 9.0013 19.5537 9.0013 19.1856V11.5189H1.33464C0.966449 11.5189 0.667969 11.2204 0.667969 10.8522V10.1856C0.667969 9.81739 0.966449 9.51889 1.33464 9.51889H9.0013V1.85221C9.0013 1.48402 9.2998 1.18555 9.668 1.18555H10.3346C10.7028 1.18555 11.0013 1.48402 11.0013 1.85221V9.51889H18.668C19.0362 9.51889 19.3346 9.81739 19.3346 10.1856Z" fill="white"/>
</svg>
