<svg width="26" height="12" viewBox="0 0 26 12" fill="none" xmlns="http://www.w3.org/2000/svg">
<path d="M19.4915 11.6995C19.3473 11.5553 19.2718 11.3718 19.265 11.1489C19.2587 10.9261 19.3277 10.7426 19.4719 10.5984L23.3258 6.74442H0.786522C0.563674 6.74442 0.376744 6.66892 0.225732 6.5179C0.075244 6.36742 0 6.18075 0 5.9579C0 5.73505 0.075244 5.54812 0.225732 5.39711C0.376744 5.24662 0.563674 5.17138 0.786522 5.17138H23.3258L19.4719 1.31742C19.3277 1.17323 19.2587 0.989706 19.265 0.766859C19.2718 0.544011 19.3473 0.360489 19.4915 0.216293C19.6357 0.0720975 19.8192 0 20.0421 0C20.2649 0 20.4485 0.0720975 20.5927 0.216293L25.7837 5.40734C25.8624 5.47288 25.9182 5.55468 25.9512 5.65273C25.9837 5.75131 26 5.85303 26 5.9579C26 6.06277 25.9837 6.16109 25.9512 6.25285C25.9182 6.34461 25.8624 6.42981 25.7837 6.50847L20.5927 11.6995C20.4485 11.8437 20.2649 11.9158 20.0421 11.9158C19.8192 11.9158 19.6357 11.8437 19.4915 11.6995Z" fill="white"/>
</svg>
